<svg width="91" height="39" viewBox="0 0 91 39" fill="none" xmlns="http://www.w3.org/2000/svg">
<path d="M28.9011 17.2099C28.9011 11.0863 23.9179 6.1221 17.7709 6.1221C11.6238 6.1221 6.64062 11.0863 6.64062 17.2099V26.7785C6.64062 32.9021 11.6238 37.8663 17.7709 37.8663C23.9179 37.8663 28.9011 32.9021 28.9011 26.7785V17.2099Z" fill="#1DDA82"/>
<path d="M17.7754 4.98837C14.5218 4.99237 11.4026 6.28128 9.10189 8.57239C6.80123 10.8635 5.50695 13.9698 5.50293 17.2099V26.786C5.58255 29.9738 6.91009 33.0043 9.20223 35.2308C11.4944 37.4574 14.5696 38.7037 17.7716 38.7037C20.9736 38.7037 24.0488 37.4574 26.341 35.2308C28.6331 33.0043 29.9607 29.9738 30.0403 26.786V17.2099C30.0363 13.9711 28.743 10.8659 26.444 8.57505C24.145 6.28416 21.0277 4.99437 17.7754 4.98837ZM17.2062 16.1215V11.8738C17.2062 11.7235 17.2662 11.5793 17.3729 11.473C17.4797 11.3667 17.6244 11.307 17.7754 11.307C17.9264 11.307 18.0712 11.3667 18.1779 11.473C18.2847 11.5793 18.3446 11.7235 18.3446 11.8738V16.1215C18.3446 16.2719 18.2847 16.416 18.1779 16.5223C18.0712 16.6287 17.9264 16.6884 17.7754 16.6884C17.6244 16.6884 17.4797 16.6287 17.3729 16.5223C17.2662 16.416 17.2062 16.2719 17.2062 16.1215ZM27.7634 17.2099V20.1424C24.8301 20.5702 21.8761 20.8426 18.9139 20.9587V18.6913C19.4212 18.4697 19.8528 18.1059 20.156 17.6442C20.4593 17.1825 20.621 16.643 20.6215 16.0913V11.8738C20.6205 11.3232 20.4585 10.7849 20.1552 10.3245C19.8519 9.86409 19.4206 9.50164 18.9139 9.2814V7.3314C21.3485 7.61123 23.5951 8.77207 25.2266 10.5933C26.8582 12.4145 27.761 14.7692 27.7634 17.2099ZM16.637 7.3314V9.2814C16.1302 9.50164 15.6989 9.86409 15.3956 10.3245C15.0923 10.7849 14.9303 11.3232 14.9293 11.8738V16.1215C14.9298 16.6732 15.0915 17.2128 15.3948 17.6745C15.698 18.1362 16.1296 18.5 16.637 18.7215V20.989C13.6722 20.8728 10.7157 20.6003 7.77983 20.1727V17.2099C7.78249 14.7681 8.68633 12.4124 10.3194 10.591C11.9525 8.7696 14.2009 7.60951 16.637 7.3314ZM17.7754 36.7326C15.1263 36.7306 12.5862 35.6822 10.7124 33.8175C8.83848 31.9529 7.78385 29.4241 7.77983 26.786V22.4326C11.0904 22.9186 14.4294 23.1888 17.7754 23.2413C21.1189 23.1888 24.4553 22.9187 27.7634 22.4326V26.786C27.7614 29.4234 26.7084 31.9522 24.8358 33.8171C22.9631 35.682 20.4238 36.7306 17.7754 36.7326Z" fill="#424E5A"/>
<path d="M14.5646 2.26744C14.8665 2.26744 15.1561 2.148 15.3696 1.93538C15.5831 1.72277 15.703 1.4344 15.703 1.13372C15.703 0.833039 15.5831 0.544673 15.3696 0.332059C15.1561 0.119445 14.8665 0 14.5646 0C10.703 0.00400155 7.00081 1.53339 4.2703 4.25256C1.53978 6.97174 0.00401824 10.6586 0 14.5041L0 19.2128C0 19.5135 0.119943 19.8018 0.333444 20.0145C0.546944 20.2271 0.836513 20.3465 1.13845 20.3465C1.44038 20.3465 1.72995 20.2271 1.94345 20.0145C2.15695 19.8018 2.2769 19.5135 2.2769 19.2128V14.5041C2.27891 11.2593 3.57414 8.14806 5.87809 5.85368C8.18204 3.5593 11.3063 2.26944 14.5646 2.26744Z" fill="#424E5A"/>
<path d="M48.635 19.9535H43.7473L39.9524 14.1639V19.9535H35.9375V6.92325H39.9828V12.3802L43.7017 6.92325H48.3238L43.7017 13.2116L48.635 19.9535Z" fill="#424E5A"/>
<path d="M60.9294 19.9535H56.922V10.1732H54.3188V15.1163C54.4133 16.3735 54.1108 17.6288 53.4536 18.7064C52.73 19.6638 51.5283 20.1424 49.8485 20.1424C49.3077 20.1413 48.7694 20.0702 48.2471 19.9308L48.4899 16.6279C48.8034 16.7643 49.1421 16.8338 49.4842 16.832C49.6357 16.85 49.7892 16.8222 49.9246 16.7521C50.06 16.682 50.171 16.5728 50.2431 16.4389C50.4333 15.9298 50.5109 15.3859 50.4708 14.8442V6.92325H60.9294V19.9535Z" fill="#424E5A"/>
<path d="M76.003 19.9535H71.9805V12.6297L67.1079 19.9535H63.2676V6.90814H67.2749V14.3605L72.193 6.92326H75.9878L76.003 19.9535Z" fill="#424E5A"/>
<path d="M90.9996 19.9535H86.1118L82.317 14.1639V19.9535H78.2793V6.92325H82.317V12.3802L86.0359 6.92325H90.6656L86.0359 13.2116L90.9996 19.9535Z" fill="#424E5A"/>
<path d="M42.9346 35.2663C42.1604 35.5922 41.3311 35.7692 40.4908 35.7878C39.7929 35.8109 39.0975 35.6943 38.4457 35.4451C37.7939 35.1958 37.1989 34.8189 36.6959 34.3366C36.1973 33.8559 35.8048 33.2769 35.5435 32.6366C35.2821 31.9964 35.1577 31.3089 35.178 30.618C35.1566 29.9084 35.2908 29.2027 35.5713 28.55C35.8518 27.8973 36.2719 27.3134 36.8022 26.839C37.794 25.9257 39.1022 25.43 40.4528 25.4558C41.3075 25.4558 42.1519 25.6415 42.927 26V29.0233C42.6387 28.7303 42.2936 28.4988 41.9126 28.3428C41.5316 28.1869 41.1227 28.1098 40.7109 28.1163C40.3811 28.1083 40.0535 28.1717 39.7508 28.3022C39.4481 28.4327 39.1775 28.6272 38.9577 28.8721C38.5258 29.3677 38.298 30.0076 38.3201 30.6634C38.3105 30.9856 38.3652 31.3066 38.4812 31.6076C38.5971 31.9086 38.772 32.1837 38.9956 32.4169C39.2166 32.646 39.4835 32.8263 39.779 32.9461C40.0745 33.0658 40.392 33.1225 40.7109 33.1122C41.12 33.1236 41.5273 33.0525 41.9081 32.9031C42.289 32.7537 42.6356 32.5292 42.927 32.243L42.9346 35.2663Z" fill="#424E5A"/>
<path d="M50.615 35.5233H44.4219V25.7355H50.615V28.1692H47.4501V29.4768H50.3798V31.7442H47.4501V33.0669H50.615V35.5233Z" fill="#424E5A"/>
<path d="M60.0492 29.0459C60.0763 29.4815 60.0059 29.9176 59.8432 30.3228C59.6804 30.728 59.4294 31.0921 59.1081 31.389C58.3391 31.9837 57.3777 32.2768 56.4062 32.2128H55.1159V35.5233H52.0801V25.7355H56.1633C57.2327 25.6596 58.291 25.992 59.1233 26.6651C59.4394 26.9731 59.6856 27.3449 59.8453 27.7556C60.005 28.1663 60.0745 28.6063 60.0492 29.0459ZM56.9223 28.9704C56.9223 28.275 56.4973 27.9198 55.6396 27.9198H55.0856V30.0209H55.6169C56.52 30.0209 56.9223 29.6733 56.9223 28.9704Z" fill="#424E5A"/>
<path d="M69.4297 32.6209C69.4476 33.0056 69.3785 33.3895 69.2274 33.744C69.0764 34.0985 68.8472 34.4147 68.5569 34.6692C67.742 35.2851 66.7317 35.5883 65.7108 35.5232H61.248V25.7355H65.5134C66.3807 25.6712 67.2395 25.9419 67.9118 26.4913C68.1442 26.7039 68.3281 26.9637 68.4512 27.2532C68.5742 27.5426 68.6336 27.855 68.6252 28.1692C68.6322 28.5841 68.5097 28.9909 68.2745 29.3335C68.0392 29.676 67.703 29.9374 67.3122 30.0814C67.8977 30.2041 68.4291 30.5084 68.8301 30.9506C69.23 31.4147 69.4436 32.0095 69.4297 32.6209ZM65.8777 28.7209C65.8777 28.1314 65.5134 27.8291 64.7848 27.8291H64.2384V29.6279H64.5723C65.4451 29.6279 65.8777 29.3331 65.8777 28.7209ZM66.3331 32.5C66.3331 31.85 65.9385 31.525 65.1415 31.525H64.2384V33.3919H64.9973C65.3172 33.4073 65.6351 33.334 65.9157 33.1802C66.042 33.1168 66.148 33.0196 66.2218 32.8994C66.2955 32.7792 66.3341 32.6408 66.3331 32.5Z" fill="#424E5A"/>
<path d="M80.2079 35.5232H77.1721V30.0134L73.5366 35.5232H70.6602V25.6977H73.696V31.2756L77.3466 25.6977H80.2079V35.5232Z" fill="#424E5A"/>
<path d="M89.2093 35.2663C88.4352 35.5929 87.6059 35.7699 86.7654 35.7878C86.0675 35.8113 85.372 35.6949 84.7201 35.4457C84.0682 35.1964 83.4733 34.8193 82.9706 34.3366C82.4708 33.8567 82.0776 33.2779 81.8162 32.6374C81.5547 31.997 81.4309 31.3091 81.4526 30.618C81.4318 29.9092 81.5655 29.2043 81.8446 28.5519C82.1237 27.8995 82.5415 27.3151 83.0692 26.839C84.0642 25.9259 85.3747 25.4304 86.7274 25.4558C87.5797 25.4557 88.4216 25.6415 89.1941 26V29.0233C88.9067 28.7312 88.5628 28.5002 88.1831 28.3443C87.8035 28.1884 87.3961 28.1109 86.9855 28.1163C86.6553 28.1052 86.3268 28.1672 86.0236 28.2979C85.7204 28.4286 85.4501 28.6247 85.2323 28.8721C84.7977 29.3666 84.5672 30.0066 84.5872 30.6634C84.5768 30.9864 84.6319 31.3081 84.7493 31.6094C84.8667 31.9107 85.0438 32.1853 85.2702 32.4169C85.4913 32.646 85.7582 32.8263 86.0537 32.9461C86.3492 33.0658 86.6666 33.1225 86.9855 33.1122C87.3934 33.1226 87.7992 33.051 88.1787 32.9016C88.5581 32.7523 88.9035 32.5283 89.1941 32.243L89.2093 35.2663Z" fill="#424E5A"/>
</svg>
