<svg width="445" height="262" viewBox="0 0 445 262" fill="none" xmlns="http://www.w3.org/2000/svg">
<g clip-path="url(#clip0)">
<path d="M48.3606 52.6488L58.3605 58.5941C58.6392 57.9996 58.9625 57.4381 59.3415 56.9206L49.6315 51.5038L48.3606 52.6488Z" fill="#6DBEF8"/>
<path d="M47.5914 50.3478L39.7765 45.9879C39.6093 46.4173 39.3641 46.7916 39.0854 47.1329L46.3651 51.4487L47.5914 50.3478Z" fill="#6DBEF8"/>
<path d="M205.605 230.534L202.55 214.691C201.948 214.878 201.324 215.01 200.677 215.076L204.256 230.82C204.691 230.666 205.148 230.556 205.605 230.534Z" fill="#6DBEF8"/>
<path d="M119.04 21.1718L100.211 9.98587C100.032 10.4153 99.7869 10.8006 99.4859 11.1309L117.958 22.8783C118.237 22.2398 118.605 21.6673 119.04 21.1718Z" fill="#6DBEF8"/>
<path d="M188.849 19.4323C188.626 19.0249 188.47 18.5955 188.392 18.1331L172.997 23.1316C173.309 23.7151 173.532 24.3426 173.654 24.9922L188.849 19.4323Z" fill="#6DBEF8"/>
<path d="M24.2359 116.638L40.0105 136.158C40.2669 135.894 40.5568 135.685 40.8689 135.497L25.1166 115.966C24.8602 116.23 24.5592 116.451 24.2359 116.638Z" fill="#6DBEF8"/>
<path d="M90.5785 234.751L114.056 222.288C113.833 221.99 113.677 221.66 113.544 221.308L90.0657 233.771C90.2775 234.079 90.4447 234.409 90.5785 234.751Z" fill="#6DBEF8"/>
<path d="M142.964 233.353L121.414 221.385C121.269 221.737 121.08 222.045 120.857 222.343L142.406 234.31C142.551 233.958 142.741 233.639 142.964 233.353Z" fill="#6DBEF8"/>
<path d="M172.607 243.118L165.449 219.469C165.115 219.623 164.747 219.711 164.379 219.766L171.536 243.415C171.871 243.261 172.239 243.173 172.607 243.118Z" fill="#6DBEF8"/>
<path d="M55.0048 224.203C55.016 224.214 55.0383 224.225 55.0494 224.225L61.2255 199.74C60.8799 199.696 60.5343 199.63 60.1887 199.508C60.1775 199.497 60.1552 199.497 60.1441 199.486L53.968 223.961C54.3136 224.016 54.6592 224.082 55.0048 224.203Z" fill="#6DBEF8"/>
<path d="M149.474 233.066L161.414 219.172C161.091 218.974 160.823 218.72 160.578 218.445L148.638 232.34C148.95 232.538 149.229 232.791 149.474 233.066Z" fill="#6DBEF8"/>
<path d="M145.728 26.7978L143.677 40.3178C144.045 40.3289 144.413 40.3839 144.781 40.483L146.854 26.8198L145.728 26.7978Z" fill="#6DBEF8"/>
<path d="M82.6856 234.696L57.6915 228.585C57.6581 228.927 57.5801 229.279 57.4574 229.62C57.4463 229.631 57.4463 229.642 57.4351 229.664L82.4292 235.775C82.4627 235.433 82.5407 235.081 82.6633 234.74C82.6633 234.718 82.6745 234.707 82.6856 234.696Z" fill="#6DBEF8"/>
<path d="M98.6275 26.1262L97.2675 12.4521C96.9107 12.5401 96.5317 12.5511 96.1526 12.5401L97.5016 26.2143L98.6275 26.1262Z" fill="#6DBEF8"/>
<path d="M97.7356 28.4052L99.3075 44.2924C99.6642 44.2043 100.043 44.1933 100.422 44.2043L98.8504 28.3172L97.7356 28.4052Z" fill="#6DBEF8"/>
<path d="M25.8636 111.232L46.064 98.0091C45.8188 97.7339 45.607 97.4256 45.4398 97.0953L25.2393 110.318C25.4957 110.604 25.7076 110.902 25.8636 111.232Z" fill="#6DBEF8"/>
<path d="M70.98 47.1549L96.0522 48.6633C96.0299 48.3 96.0522 47.9366 96.1191 47.5623L71.1584 46.054L70.98 47.1549Z" fill="#6DBEF8"/>
<path d="M147.178 24.6289L149.641 8.36742C149.273 8.35641 148.906 8.30136 148.538 8.20227L146.052 24.6179L147.178 24.6289Z" fill="#6DBEF8"/>
<path d="M173.788 52.5827L147.791 45.1181C147.746 45.4044 147.679 45.6906 147.568 45.9769C147.545 46.0429 147.501 46.098 147.467 46.164L173.465 53.6287C173.509 53.3424 173.576 53.0562 173.688 52.7699C173.721 52.7038 173.766 52.6488 173.788 52.5827Z" fill="#6DBEF8"/>
<path d="M207.311 230.82C207.667 230.952 207.991 231.151 208.281 231.36L230.934 190.403C230.577 190.271 230.254 190.073 229.964 189.864L207.311 230.82Z" fill="#6DBEF8"/>
<path d="M59.8654 191.835C60.1999 191.68 60.5566 191.57 60.9245 191.504L44.9046 142.83C44.5702 142.984 44.2135 143.094 43.8456 143.16L59.8654 191.835Z" fill="#6DBEF8"/>
<path d="M186.018 35.0662L191.514 21.4691C191.358 21.425 191.19 21.403 191.034 21.348C190.834 21.2709 190.655 21.1718 190.477 21.0727L185.037 34.5377L186.018 35.0662Z" fill="#6DBEF8"/>
<path d="M100.523 8.59862L145.572 5.06448C145.494 4.71217 145.472 4.33783 145.494 3.9635L100.445 7.49764C100.523 7.86097 100.545 8.22429 100.523 8.59862Z" fill="#6DBEF8"/>
<path d="M184.2 36.5855L178.693 50.2157C178.849 50.2597 179.017 50.2817 179.173 50.3478C179.373 50.4248 179.552 50.5239 179.73 50.623L185.182 37.125L184.2 36.5855Z" fill="#6DBEF8"/>
<path d="M195.36 20.5333L237.399 56.1609C237.611 55.8417 237.856 55.5774 238.135 55.3352L196.096 19.7075C195.884 20.0268 195.639 20.291 195.36 20.5333Z" fill="#6DBEF8"/>
<path d="M53.5444 45.008L40.044 44.1933C40.0663 44.5566 40.044 44.92 39.9771 45.2943L52.3961 46.043L53.5444 45.008Z" fill="#6DBEF8"/>
<path d="M39.7987 57.35L37.4242 48.355C37.0786 48.4981 36.7107 48.5752 36.3428 48.6302L38.8735 58.1867L39.7987 57.35Z" fill="#6DBEF8"/>
<path d="M55.4953 46.2301L68.7505 47.0228L68.9177 45.9328L56.6547 45.1952L55.4953 46.2301Z" fill="#6DBEF8"/>
<path d="M176.965 245.221C177.144 245.54 177.3 245.882 177.389 246.245L202.093 236.744C201.915 236.424 201.759 236.083 201.67 235.72L176.965 245.221Z" fill="#6DBEF8"/>
<path d="M41.8166 69.3287L42.8869 69.0094L40.4343 59.7611L39.509 60.5979L41.8166 69.3287Z" fill="#6DBEF8"/>
<path d="M42.3852 71.4645L47.6582 91.4033C48.0038 91.2601 48.3717 91.1831 48.7396 91.128L43.4554 71.1342L42.3852 71.4645Z" fill="#6DBEF8"/>
<path d="M168.582 32.2367L175.605 50.623C176.007 50.4028 176.441 50.2487 176.898 50.1606L170.499 31.5651C169.897 31.8843 169.251 32.1045 168.582 32.2367Z" fill="#6DBEF8"/>
<path d="M161.904 29.1099L146.475 41.4188C146.821 41.7271 147.088 42.1014 147.311 42.4978L163.142 30.6843C162.64 30.2219 162.228 29.6934 161.904 29.1099Z" fill="#6DBEF8"/>
<path d="M151.771 7.82795L162.763 21.9095C163.22 21.414 163.744 20.9957 164.335 20.6654L152.852 6.98019C152.54 7.3215 152.172 7.60775 151.771 7.82795Z" fill="#6DBEF8"/>
<path d="M41.8165 69.3287L25.0051 74.5033C25.3396 75.1639 25.5737 75.8685 25.674 76.6061L42.3851 71.4646L43.4553 71.1343L58.3046 66.5652C58.0036 65.8936 57.7918 65.189 57.6469 64.4623L42.8979 68.9984L41.8165 69.3287Z" fill="#6DBEF8"/>
<path d="M71.1585 46.065L72.8865 35.3965C72.1507 35.4075 71.4149 35.2974 70.6903 35.0442L68.9289 45.9328L68.7505 47.0228L67.8029 52.88C68.5387 52.913 69.2745 53.0231 70.0102 53.2323L70.9913 47.1549L71.1585 46.065Z" fill="#6DBEF8"/>
<path d="M25.4177 155.337L11.4491 141.057C11.0032 141.663 10.4569 142.18 9.84376 142.588L23.8124 156.867C24.2583 156.262 24.8046 155.744 25.4177 155.337Z" fill="#6DBEF8"/>
<path d="M30.0553 186.561V166.644C29.3307 166.776 28.5726 166.776 27.8257 166.644V186.55C28.5503 186.473 29.2972 186.484 30.0553 186.561Z" fill="#6DBEF8"/>
<path d="M8.6955 131.622L18.6396 84.7423L18.5727 84.0818C17.9373 84.0377 17.2907 83.9056 16.6553 83.6634C16.633 83.6524 16.6107 83.6414 16.5884 83.6414L6.49932 131.171C7.19051 131.193 7.88169 131.314 8.56173 131.567C8.61747 131.589 8.65091 131.611 8.6955 131.622Z" fill="#6DBEF8"/>
<path d="M185.037 34.5267L173.409 28.13C173.387 28.1961 173.365 28.2621 173.342 28.3282C173.097 28.9778 172.74 29.5503 172.328 30.0567L184.201 36.5965L185.182 37.136L199.329 44.9199C199.618 44.2263 199.986 43.5878 200.41 42.9932L186.018 35.0772L185.037 34.5267Z" fill="#6DBEF8"/>
<path d="M40.4342 59.7611L48.3494 52.6488L49.6314 51.4928L55.4953 46.2301L56.6436 45.1952L68.9623 34.1303C68.3714 33.6789 67.8697 33.1395 67.4796 32.5229L67.3904 32.5559L53.5444 45.008L52.3961 46.0429L47.5913 50.3588L46.365 51.4598L39.8099 57.35L38.8734 58.1867L23.1769 72.2903C23.7677 72.7527 24.2694 73.3142 24.6707 73.9197L39.5089 60.5869L40.4342 59.7611Z" fill="#6DBEF8"/>
<path d="M146.052 24.6069L130.065 24.3096C130.177 25.0252 130.166 25.7739 130.021 26.5116L145.717 26.8088L146.843 26.8308L161.202 27.0951C161.09 26.3794 161.09 25.6308 161.247 24.8931L147.178 24.6289L146.052 24.6069Z" fill="#6DBEF8"/>
<path d="M98.8504 28.3172L117.68 26.8639C117.49 26.1593 117.434 25.4216 117.512 24.6729L98.6386 26.1262L97.5237 26.2143L78.7949 27.6566C78.9844 28.3612 79.0513 29.0989 78.9732 29.8475L97.7467 28.3943L98.8504 28.3172Z" fill="#6DBEF8"/>
<path d="M181.625 52.858C181.781 53.2874 181.882 53.7278 181.882 54.1902L198.938 51.3717C198.76 50.7662 198.648 50.1386 198.593 49.511L181.625 52.858Z" fill="#6DBEF8"/>
<path d="M237.165 56.6123L218.136 50.59C218.024 51.1185 217.89 51.6359 217.69 52.1534C217.656 52.2415 217.612 52.3295 217.567 52.4286L236.753 57.9005C236.797 57.5922 236.864 57.2729 236.987 56.9757C237.032 56.8325 237.098 56.7224 237.165 56.6123Z" fill="#6DBEF8"/>
<path d="M127.568 30.321L140.143 42.0904C140.411 41.7051 140.734 41.3748 141.113 41.1106L128.973 28.9117C128.582 29.4622 128.103 29.9356 127.568 30.321Z" fill="#6DBEF8"/>
<path d="M129.285 22.1297L146.921 7.32151C146.575 7.02425 146.286 6.67193 146.063 6.28659L127.98 20.5773C128.504 21.0287 128.95 21.5572 129.285 22.1297Z" fill="#6DBEF8"/>
<path d="M118.649 28.9227L102.752 44.997C103.131 45.2612 103.455 45.5805 103.722 45.9438L120.099 30.354C119.53 29.9466 119.04 29.4732 118.649 28.9227Z" fill="#6DBEF8"/>
<path d="M78.0146 25.9281L93.6554 11.6263C93.2875 11.3401 92.9865 10.9988 92.7413 10.6245L76.6656 24.4197C77.2008 24.8491 77.6578 25.3556 78.0146 25.9281Z" fill="#6DBEF8"/>
<path d="M77.2008 33.5578L96.4759 46.5494C96.6766 46.131 96.933 45.7567 97.2452 45.4374L78.3825 31.8954C78.0815 32.5339 77.6802 33.0844 77.2008 33.5578Z" fill="#6DBEF8"/>
<path d="M76.0636 58.0436C76.2977 58.484 76.5095 58.9354 76.6768 59.4088L96.9552 50.9533C96.5093 50.3918 96.2194 49.7422 96.108 49.0376L76.0636 58.0436Z" fill="#6DBEF8"/>
<path d="M50.6682 91.3262C50.7017 91.3372 50.7351 91.3372 50.7574 91.3482C51.1588 91.5023 51.5155 91.7225 51.8388 91.9758L63.4774 71.6187C62.8643 71.3654 62.2846 71.0462 61.7495 70.6828L50.6682 91.3262Z" fill="#6DBEF8"/>
<path d="M22.9205 72.1141L34.5591 48.4651C34.4811 48.4431 34.4031 48.4321 34.3139 48.399C33.9571 48.2669 33.645 48.0798 33.344 47.8706L21.081 71.2113C21.1925 71.2444 21.304 71.2774 21.4155 71.3214C21.9729 71.5196 22.4746 71.7948 22.9205 72.1141Z" fill="#6DBEF8"/>
<path d="M67.4015 32.556L67.4907 32.5229C67.1228 31.9394 66.8441 31.3008 66.6769 30.6292L39.4197 42.2886C39.6538 42.6629 39.8433 43.0703 39.9548 43.4997L67.4015 32.556Z" fill="#6DBEF8"/>
<path d="M24.2025 81.7037L45.3171 93.7374C45.4843 93.308 45.7296 92.9336 46.0194 92.5923L25.2393 79.9641C24.9829 80.6137 24.6262 81.1862 24.2025 81.7037Z" fill="#6DBEF8"/>
<path d="M22.3854 108.909L20.6128 83.9166C19.9551 84.0708 19.2639 84.1368 18.5727 84.0818L18.6396 84.7424L21.0364 108.997C21.4712 108.898 21.9283 108.865 22.3854 108.909Z" fill="#6DBEF8"/>
<path d="M19.2416 116.164L8.82922 131.677C9.46467 131.952 10.0332 132.316 10.5349 132.745L20.401 116.891C19.9662 116.715 19.576 116.473 19.2416 116.164Z" fill="#6DBEF8"/>
<path d="M26.7443 139.153L38.8847 139.538C38.8289 139.098 38.8512 138.657 38.9404 138.206L26.4879 137.479L26.7443 139.153Z" fill="#6DBEF8"/>
<path d="M24.7042 137.38L12.5973 136.676C12.6754 137.347 12.6419 138.03 12.497 138.712L24.9272 139.098L24.7042 137.38Z" fill="#6DBEF8"/>
<path d="M33.1657 155.888L41.3819 142.874C40.9359 142.687 40.5457 142.434 40.2113 142.125L31.5046 154.809C32.1289 155.095 32.6863 155.458 33.1657 155.888Z" fill="#6DBEF8"/>
<path d="M26.4878 137.479L23.3106 117.045C22.887 117.177 22.4522 117.243 22.0063 117.232L24.7153 137.369L24.9494 139.087L27.023 154.566C27.6918 154.357 28.3942 154.258 29.1077 154.269L26.7554 139.142L26.4878 137.479Z" fill="#6DBEF8"/>
<path d="M32.3852 165.741L58.3827 193.024C58.6614 192.671 58.9847 192.374 59.3526 192.132L33.9348 164.343C33.5 164.894 32.9649 165.356 32.3852 165.741Z" fill="#6DBEF8"/>
<path d="M38.7955 197.02L57.5355 196.36C57.4574 195.919 57.4351 195.468 57.502 195.016L38.762 195.116C38.8289 195.743 38.8512 196.382 38.7955 197.02Z" fill="#6DBEF8"/>
<path d="M51.5043 224.446L35.6851 203.395C35.1946 203.846 34.6706 204.243 34.1021 204.584L50.4229 225.227C50.7351 224.908 51.103 224.655 51.5043 224.446Z" fill="#6DBEF8"/>
<path d="M116.186 251.805L90.5897 237.701C90.5897 237.701 90.5897 237.701 90.5897 237.712C90.4225 238.142 90.1883 238.505 89.9096 238.846L115.16 253.578C115.171 253.567 115.171 253.545 115.171 253.533C115.417 252.895 115.762 252.311 116.186 251.805Z" fill="#6DBEF8"/>
<path d="M142.663 237.889L125.305 251.133C125.818 251.596 126.241 252.124 126.576 252.708L143.499 238.956C143.153 238.648 142.886 238.285 142.663 237.889Z" fill="#6DBEF8"/>
<path d="M190.455 209.01C190.209 208.404 190.031 207.788 189.908 207.138L167.534 213.854C167.724 214.262 167.846 214.691 167.902 215.131L190.455 209.01Z" fill="#6DBEF8"/>
<path d="M229.206 189.137C228.916 188.785 228.693 188.411 228.526 187.992L207.634 199.652C208.024 200.18 208.359 200.742 208.626 201.336L229.206 189.137Z" fill="#6DBEF8"/>
<path d="M43.0986 134.881C43.4665 134.881 43.8344 134.936 44.2023 135.046L49.2301 99.4514C48.8622 99.4514 48.4943 99.3964 48.1264 99.2863L43.0986 134.881Z" fill="#6DBEF8"/>
<path d="M201.826 233.231C201.926 232.967 202.06 232.725 202.205 232.494L167.757 216.871C167.735 216.959 167.724 217.047 167.679 217.135C167.579 217.399 167.445 217.642 167.3 217.873L201.748 233.496C201.781 233.408 201.792 233.319 201.826 233.231Z" fill="#6DBEF8"/>
<path d="M121.704 220.009L159.574 216.574C159.496 216.221 159.474 215.847 159.485 215.473L121.615 218.908C121.704 219.26 121.715 219.634 121.704 220.009Z" fill="#6DBEF8"/>
<path d="M169.63 245.1L150.399 236.975C150.366 237.096 150.344 237.228 150.299 237.349C150.21 237.58 150.098 237.789 149.976 237.999L169.206 246.124C169.24 246.003 169.262 245.871 169.307 245.75C169.396 245.507 169.507 245.298 169.63 245.1Z" fill="#6DBEF8"/>
<path d="M57.58 227.033C57.6804 227.385 57.725 227.749 57.725 228.123L79.2966 225.326L83.99 232.967C84.2798 232.736 84.592 232.538 84.9376 232.384L80.5118 225.172L113.421 220.911C113.321 220.559 113.276 220.196 113.276 219.821L79.8875 224.148L64.3581 198.848C64.0683 199.079 63.7561 199.277 63.4105 199.431L78.6723 224.302L57.58 227.033Z" fill="#6DBEF8"/>
<path d="M118.215 235.477L90.8126 235.643C90.8684 236.006 90.8795 236.369 90.8238 236.744L118.304 236.578L118.215 235.477Z" fill="#6DBEF8"/>
<path d="M120.01 236.567L142.161 236.435C142.105 236.072 142.094 235.709 142.15 235.334L119.887 235.466L120.01 236.567Z" fill="#6DBEF8"/>
<path d="M65.3057 197.78L113.432 218.676C113.466 218.566 113.477 218.456 113.521 218.346C113.611 218.104 113.733 217.884 113.867 217.664L65.7405 196.767C65.7071 196.877 65.6959 196.987 65.6513 197.097C65.5621 197.339 65.4395 197.56 65.3057 197.78Z" fill="#6DBEF8"/>
<path d="M139.385 44.3144L104.402 47.4522C104.48 47.8045 104.503 48.1788 104.491 48.5532L139.474 45.4154C139.396 45.052 139.374 44.6887 139.385 44.3144Z" fill="#6DBEF8"/>
<path d="M118.304 236.578L119.43 249.735C120.088 249.559 120.779 249.482 121.481 249.526L120.01 236.567L119.887 235.466L118.571 223.873C118.137 223.983 117.691 224.027 117.223 223.994L118.215 235.477L118.304 236.578Z" fill="#6DBEF8"/>
<path d="M196.107 214.504C197.623 215.076 199.184 215.241 200.689 215.076C201.324 215.01 201.948 214.878 202.561 214.691C205.36 213.832 207.757 211.762 208.871 208.845C209.852 206.301 209.685 203.615 208.626 201.314C208.359 200.719 208.024 200.158 207.634 199.629C206.541 198.143 205.014 196.932 203.152 196.227C198.046 194.312 192.328 196.844 190.388 201.875C189.719 203.615 189.596 205.421 189.908 207.116C190.031 207.755 190.209 208.382 190.455 208.988C191.447 211.454 193.42 213.502 196.107 214.504Z" fill="#002F99"/>
<path d="M38.1823 199.74C38.5279 198.848 38.7285 197.934 38.7954 197.02C38.8512 196.382 38.8289 195.743 38.7508 195.115C38.3272 191.625 36.0084 188.477 32.4521 187.133C31.6606 186.836 30.8468 186.66 30.0441 186.561C29.2972 186.473 28.5503 186.473 27.8145 186.561C24.2583 186.957 21.0476 189.258 19.6875 192.781C17.7478 197.824 20.3118 203.472 25.4065 205.388C28.3831 206.511 31.5714 206.103 34.0909 204.584C34.6595 204.243 35.1834 203.846 35.6739 203.395C36.7553 202.404 37.6249 201.182 38.1823 199.74Z" fill="#002F99"/>
<path d="M70.8686 53.5076C70.5787 53.3975 70.2889 53.3094 69.999 53.2323C69.2632 53.0342 68.5275 52.9131 67.7917 52.88C64.4807 52.7259 61.2923 54.2452 59.3414 56.9096C58.9624 57.4271 58.6279 57.9886 58.3604 58.5831C58.2712 58.7703 58.182 58.9574 58.1039 59.1556C57.4239 60.9172 57.3124 62.7448 57.6469 64.4623C57.7918 65.189 58.0036 65.8936 58.3046 66.5652C59.0404 68.2056 60.2221 69.6369 61.7717 70.6828C62.3068 71.0462 62.8865 71.3545 63.4996 71.6187C63.6111 71.6627 63.7226 71.7178 63.8341 71.7618C68.9399 73.6775 74.6589 71.1453 76.5987 66.1138C77.4683 63.8678 77.4348 61.5117 76.6879 59.4088C76.5207 58.9354 76.3088 58.484 76.0747 58.0436C74.9822 56.0398 73.1874 54.3774 70.8686 53.5076Z" fill="#002F99"/>
<path d="M218.135 50.579C219.072 45.9879 216.552 41.2537 211.971 39.5362C207.679 37.9177 202.963 39.4591 200.41 42.9822C199.986 43.5658 199.618 44.2153 199.329 44.9089C199.284 45.008 199.239 45.0961 199.206 45.1952C198.66 46.6155 198.481 48.0798 198.604 49.5C198.66 50.1386 198.771 50.7551 198.95 51.3607C199.775 54.2122 201.904 56.6674 204.925 57.8014C209.93 59.6841 215.527 57.2729 217.567 52.4176C217.6 52.3295 217.656 52.2415 217.69 52.1424C217.89 51.6249 218.024 51.1075 218.135 50.579Z" fill="#002F99"/>
<path d="M130.065 24.3096C129.943 23.5389 129.675 22.8013 129.285 22.1407C128.939 21.5571 128.504 21.0397 127.98 20.5883C127.434 20.1149 126.788 19.7185 126.063 19.4433C123.51 18.4854 120.734 19.2671 119.04 21.1828C118.605 21.6783 118.237 22.2508 117.958 22.8893C117.936 22.9554 117.903 23.0104 117.88 23.0655C117.68 23.594 117.557 24.1334 117.501 24.6729C117.423 25.4216 117.49 26.1592 117.668 26.8639C117.869 27.6015 118.192 28.3062 118.638 28.9337C119.029 29.4732 119.519 29.9576 120.076 30.365C120.522 30.6843 121.002 30.9485 121.537 31.1467C123.633 31.9284 125.873 31.554 127.557 30.332C128.092 29.9466 128.571 29.4622 128.962 28.9227C129.263 28.5043 129.53 28.0419 129.72 27.5245C129.853 27.1942 129.943 26.8529 130.009 26.5116C130.177 25.7629 130.188 25.0252 130.065 24.3096Z" fill="#006ADD"/>
<path d="M145.572 5.0645C145.661 5.49388 145.84 5.90124 146.063 6.28658C146.286 6.67193 146.576 7.02424 146.921 7.32151C147.289 7.64079 147.713 7.91603 148.203 8.09219C148.315 8.13623 148.426 8.14724 148.538 8.18027C148.906 8.27936 149.273 8.34542 149.641 8.34542C150.399 8.35643 151.124 8.16926 151.771 7.81695C152.172 7.59675 152.54 7.3215 152.852 6.96919C153.198 6.59486 153.476 6.16548 153.666 5.67004C154.502 3.51212 153.398 1.08996 151.213 0.264227C149.028 -0.561507 146.576 0.528462 145.739 2.68638C145.583 3.10475 145.505 3.53414 145.483 3.95251C145.472 4.33785 145.494 4.71218 145.572 5.0645Z" fill="#006ADD"/>
<path d="M147.791 45.1181C147.936 44.1933 147.746 43.2795 147.311 42.4868C147.088 42.0904 146.821 41.7271 146.475 41.4078C146.085 41.0555 145.639 40.7693 145.115 40.5711C145.004 40.527 144.892 40.516 144.781 40.483C144.413 40.3839 144.045 40.3179 143.677 40.3179C142.752 40.3068 141.849 40.5821 141.113 41.1106C140.745 41.3748 140.422 41.7161 140.143 42.0904C139.942 42.3657 139.764 42.6629 139.641 42.9932C139.474 43.4226 139.407 43.874 139.385 44.3034C139.374 44.6777 139.385 45.041 139.474 45.4044C139.775 46.7255 140.723 47.8816 142.094 48.399C144.212 49.1917 146.564 48.1898 147.467 46.164C147.501 46.098 147.534 46.0429 147.568 45.9769C147.679 45.6906 147.746 45.4044 147.791 45.1181Z" fill="#006ADD"/>
<path d="M162.763 21.9095C162.25 22.471 161.826 23.1316 161.536 23.8802C161.414 24.2105 161.313 24.5518 161.247 24.8821C161.102 25.6198 161.09 26.3684 161.202 27.0841C161.313 27.7887 161.559 28.4713 161.904 29.0989C162.228 29.6824 162.651 30.2109 163.153 30.6733C163.733 31.2017 164.413 31.6311 165.193 31.9284C166.319 32.3468 167.489 32.4238 168.593 32.2256C169.262 32.1045 169.909 31.8733 170.499 31.554C171.191 31.1797 171.815 30.6623 172.328 30.0457C172.751 29.5393 173.097 28.9667 173.342 28.3172C173.364 28.2511 173.387 28.1851 173.409 28.119C173.766 27.0841 173.844 26.0051 173.654 24.9922C173.532 24.3426 173.309 23.7151 172.997 23.1316C172.305 21.8654 171.168 20.8195 169.686 20.258C167.857 19.5754 165.906 19.7736 164.335 20.6544C163.744 20.9957 163.22 21.414 162.763 21.9095Z" fill="#006ADD"/>
<path d="M181.625 52.858C181.291 51.9332 180.633 51.1405 179.719 50.634C179.541 50.5349 179.362 50.4359 179.162 50.3588C179.005 50.3037 178.849 50.2707 178.682 50.2267C178.08 50.0725 177.467 50.0505 176.887 50.1606C176.43 50.2487 175.995 50.4028 175.594 50.623C174.814 51.0524 174.167 51.724 173.777 52.5828C173.744 52.6488 173.71 52.7039 173.677 52.7699C173.565 53.0562 173.498 53.3424 173.454 53.6287C173.153 55.5334 174.234 57.4601 176.129 58.1758C178.314 59.0015 180.767 57.9115 181.603 55.7536C181.804 55.2361 181.882 54.7077 181.871 54.1792C181.882 53.7168 181.781 53.2764 181.625 52.858Z" fill="#006ADD"/>
<path d="M242.45 54.5315C240.922 53.959 239.272 54.3333 238.124 55.3352C237.845 55.5774 237.589 55.8417 237.388 56.1609C237.299 56.3041 237.232 56.4582 237.154 56.6013C237.098 56.7224 237.02 56.8215 236.976 56.9537C236.853 57.2619 236.786 57.5702 236.742 57.8785C236.485 59.7611 237.544 61.6438 239.428 62.3484C241.613 63.1742 244.066 62.0842 244.902 59.9263C245.738 57.7684 244.646 55.3572 242.45 54.5315Z" fill="#006ADD"/>
<path d="M190.477 21.0617C190.655 21.1608 190.834 21.2599 191.034 21.337C191.19 21.392 191.347 21.425 191.514 21.4581C192.907 21.8104 194.334 21.4361 195.36 20.5222C195.639 20.28 195.895 20.0158 196.096 19.6965C196.263 19.4543 196.397 19.1901 196.508 18.9038C197.344 16.7459 196.241 14.3237 194.056 13.498C191.871 12.6723 189.418 13.7622 188.582 15.9201C188.303 16.6468 188.258 17.4065 188.381 18.1221C188.459 18.5845 188.615 19.0139 188.838 19.4213C189.217 20.1039 189.775 20.6764 190.477 21.0617Z" fill="#006ADD"/>
<path d="M150.399 236.975C150.801 235.566 150.422 234.101 149.474 233.066C149.229 232.791 148.95 232.549 148.638 232.34C148.393 232.185 148.136 232.053 147.858 231.943C146.052 231.261 144.078 231.899 142.975 233.353C142.752 233.639 142.562 233.958 142.417 234.31C142.406 234.332 142.395 234.354 142.384 234.376C142.261 234.696 142.194 235.015 142.15 235.345C142.105 235.72 142.116 236.083 142.161 236.446C142.239 236.964 142.406 237.459 142.663 237.911C142.886 238.307 143.164 238.659 143.51 238.968C143.889 239.309 144.335 239.595 144.836 239.782C146.787 240.52 148.95 239.727 149.976 237.999C150.098 237.79 150.21 237.58 150.299 237.349C150.344 237.228 150.366 237.096 150.399 236.975Z" fill="#006ADD"/>
<path d="M125.305 251.133C124.736 250.627 124.079 250.208 123.321 249.922C122.719 249.691 122.094 249.57 121.481 249.526C120.779 249.482 120.088 249.559 119.43 249.735C118.17 250.065 117.022 250.781 116.186 251.805C115.762 252.311 115.417 252.895 115.171 253.533C115.16 253.544 115.16 253.566 115.16 253.577C113.945 256.792 115.584 260.359 118.828 261.582C122.094 262.804 125.74 261.196 126.977 257.97C127.668 256.176 127.468 254.26 126.587 252.697C126.253 252.124 125.818 251.596 125.305 251.133Z" fill="#006ADD"/>
<path d="M113.432 218.676C113.321 219.062 113.254 219.447 113.254 219.832C113.254 220.207 113.298 220.57 113.399 220.922C113.432 221.055 113.488 221.187 113.533 221.308C113.666 221.649 113.834 221.979 114.045 222.288C114.514 222.926 115.171 223.455 115.974 223.752C116.386 223.906 116.799 223.972 117.223 223.994C117.68 224.027 118.137 223.983 118.571 223.873C119.474 223.631 120.288 223.102 120.868 222.343C121.091 222.056 121.28 221.737 121.425 221.385C121.437 221.363 121.448 221.341 121.459 221.319C121.626 220.889 121.693 220.438 121.715 219.998C121.726 219.623 121.715 219.26 121.626 218.897C121.325 217.575 120.377 216.43 119.006 215.913C117.066 215.186 114.926 215.957 113.878 217.653C113.744 217.862 113.622 218.093 113.533 218.335C113.477 218.456 113.466 218.566 113.432 218.676Z" fill="#006ADD"/>
<path d="M59.3415 192.132C58.9736 192.374 58.6503 192.671 58.3716 193.024C58.1152 193.354 57.8811 193.706 57.725 194.114C57.6135 194.411 57.5355 194.708 57.4909 195.016C57.424 195.468 57.4463 195.919 57.5243 196.36C57.7807 197.736 58.7172 198.947 60.1219 199.497C60.133 199.508 60.1553 199.519 60.1664 199.519C60.512 199.652 60.8576 199.718 61.2032 199.751C61.9501 199.839 62.6971 199.729 63.3771 199.431C63.7227 199.288 64.0348 199.079 64.3247 198.848C64.7037 198.551 65.0382 198.198 65.2946 197.769C65.4284 197.56 65.551 197.329 65.6402 197.086C65.6848 196.976 65.6959 196.866 65.7294 196.756C66.3314 194.686 65.2611 192.462 63.1876 191.68C62.4295 191.394 61.6491 191.35 60.9134 191.493C60.5455 191.559 60.1887 191.669 59.8543 191.824C59.6871 191.923 59.5087 192.022 59.3415 192.132Z" fill="#006ADD"/>
<path d="M90.5897 237.712C90.7123 237.393 90.7792 237.074 90.8238 236.755C90.8684 236.38 90.8572 236.017 90.8126 235.654C90.7681 235.345 90.69 235.048 90.5785 234.762C90.4448 234.42 90.2775 234.09 90.0657 233.782C89.5975 233.143 88.9398 232.615 88.1371 232.318C87.0557 231.91 85.9075 231.976 84.9264 232.395C84.5808 232.538 84.2687 232.747 83.9788 232.978C83.4214 233.419 82.9643 233.991 82.6856 234.696C82.6745 234.707 82.6745 234.718 82.6633 234.74C82.5296 235.081 82.4627 235.422 82.4292 235.775C82.2174 237.624 83.2765 239.452 85.1159 240.146C86.8773 240.806 88.7837 240.223 89.9096 238.857C90.1772 238.505 90.4225 238.142 90.5897 237.712Z" fill="#006ADD"/>
<path d="M40.869 135.497C40.5568 135.685 40.267 135.894 40.0106 136.158C39.6315 136.554 39.3194 137.028 39.1076 137.567C39.0295 137.777 38.9738 137.997 38.9292 138.206C38.84 138.657 38.8177 139.098 38.8735 139.538C38.9961 140.529 39.4532 141.454 40.2001 142.136C40.5345 142.445 40.9359 142.687 41.3706 142.885C41.4375 142.907 41.4821 142.951 41.549 142.973C42.3071 143.259 43.0875 143.303 43.8232 143.16C44.1911 143.094 44.5479 142.984 44.8823 142.83C45.8299 142.379 46.6103 141.597 47.0228 140.551C47.8589 138.393 46.7552 135.971 44.5702 135.145C44.4475 135.101 44.3138 135.079 44.1911 135.046C43.8232 134.947 43.4553 134.892 43.0875 134.881C42.3071 134.87 41.5379 135.09 40.869 135.497Z" fill="#006ADD"/>
<path d="M21.0364 109.008C19.7321 109.327 18.6062 110.241 18.0933 111.573C17.4467 113.236 17.9596 115.052 19.2305 116.175C19.5649 116.473 19.9551 116.715 20.3899 116.902C20.4456 116.924 20.4902 116.957 20.5459 116.979C21.0253 117.155 21.5047 117.232 21.9952 117.243C22.4411 117.254 22.887 117.188 23.2995 117.056C23.6228 116.957 23.935 116.814 24.2248 116.649C24.537 116.462 24.8491 116.241 25.1055 115.977C25.4957 115.581 25.8078 115.107 26.0085 114.568C26.4433 113.445 26.343 112.256 25.8524 111.254C25.6852 110.924 25.4734 110.615 25.2281 110.34C24.7822 109.834 24.236 109.426 23.5559 109.173C23.1657 109.03 22.7644 108.964 22.3742 108.931C21.9283 108.865 21.4712 108.898 21.0364 109.008Z" fill="#006ADD"/>
<path d="M11.4491 141.057C11.7613 140.628 12.0288 140.155 12.2406 139.626C12.3633 139.318 12.4413 139.01 12.5082 138.701C12.6531 138.019 12.6865 137.336 12.6085 136.665C12.4301 135.167 11.6944 133.769 10.535 132.745C10.0444 132.305 9.47589 131.941 8.82929 131.677C8.7847 131.655 8.74011 131.633 8.69552 131.622C8.65092 131.611 8.61748 131.589 8.57289 131.567C7.89285 131.314 7.20167 131.182 6.51048 131.171C3.89067 131.094 1.40464 132.635 0.412454 135.189C-0.824989 138.415 0.802639 142.015 4.06904 143.248C6.06456 143.997 8.19385 143.678 9.84377 142.599C10.4569 142.191 11.0032 141.674 11.4491 141.057Z" fill="#006ADD"/>
<path d="M50.6683 91.3262C50.0217 91.106 49.3751 91.051 48.7396 91.128C48.3717 91.1721 48.0039 91.2602 47.6583 91.4033C47.0228 91.6565 46.4654 92.0639 46.0195 92.5923C45.7296 92.9336 45.4844 93.308 45.3172 93.7374C45.306 93.7594 45.2949 93.7704 45.2949 93.7814C44.8601 94.9044 44.9604 96.0935 45.4509 97.0953C45.6182 97.4256 45.83 97.7339 46.0752 98.0092C46.5212 98.5156 47.0674 98.923 47.7475 99.1762C47.8701 99.2202 48.0039 99.2423 48.1265 99.2753C48.4944 99.3744 48.8623 99.4294 49.2302 99.4404C50.947 99.4514 52.5746 98.4385 53.2212 96.754C53.9012 94.9925 53.2769 93.0768 51.85 91.9758C51.5267 91.7226 51.1699 91.5024 50.7686 91.3482C50.7352 91.3372 50.7017 91.3372 50.6683 91.3262Z" fill="#006ADD"/>
<path d="M104.402 47.4522C104.28 46.9127 104.045 46.3953 103.722 45.9439C103.455 45.5805 103.131 45.2723 102.752 44.997C102.451 44.7878 102.139 44.6007 101.782 44.4575C101.336 44.2924 100.879 44.2153 100.422 44.2043C100.043 44.1933 99.6754 44.2153 99.3075 44.2924C98.5271 44.4686 97.8136 44.8759 97.2451 45.4484C96.9329 45.7677 96.6765 46.142 96.4759 46.5604C96.4201 46.6705 96.3532 46.7696 96.3086 46.8907C96.2194 47.1219 96.1637 47.3531 96.1191 47.5733C96.0411 47.9366 96.0299 48.311 96.0522 48.6743C96.0634 48.7954 96.0857 48.9165 96.0968 49.0376C96.2083 49.7422 96.4981 50.3918 96.9441 50.9533C97.4011 51.5258 98.0143 52.0102 98.7501 52.2855C100.935 53.1112 103.388 52.0213 104.224 49.8633C104.391 49.434 104.458 48.9826 104.48 48.5532C104.503 48.1678 104.491 47.8045 104.402 47.4522Z" fill="#006ADD"/>
<path d="M93.6665 11.6263C94.001 11.8906 94.38 12.1328 94.8036 12.2869C95.2496 12.4521 95.7066 12.5291 96.1637 12.5401C96.5427 12.5512 96.9106 12.5291 97.2785 12.4521C98.1369 12.2539 98.9061 11.7915 99.497 11.1199C99.7868 10.7896 100.043 10.4042 100.222 9.97486C100.244 9.93082 100.266 9.89779 100.277 9.85375C100.433 9.43538 100.511 9.006 100.534 8.58763C100.556 8.21329 100.534 7.84997 100.456 7.48665C100.166 6.14345 99.2183 4.97641 97.8248 4.44794C95.6397 3.62221 93.1871 4.71218 92.351 6.8701C91.8494 8.15824 92.0612 9.52346 92.7524 10.6024C92.9976 10.9988 93.2986 11.3401 93.6665 11.6263Z" fill="#006ADD"/>
<path d="M67.4908 32.5229C67.881 33.1285 68.3715 33.6789 68.9735 34.1304C69.4417 34.4827 69.9657 34.7799 70.5454 35.0001C70.59 35.0221 70.6457 35.0332 70.7015 35.0442C71.4261 35.2974 72.173 35.4075 72.8976 35.3965C74.5253 35.3634 76.0748 34.7029 77.212 33.5578C77.6802 33.0844 78.0815 32.5339 78.3937 31.9064C78.4717 31.7522 78.5386 31.5871 78.6055 31.4219C78.8061 30.9045 78.9176 30.376 78.9734 29.8475C79.0514 29.0989 78.9845 28.3612 78.795 27.6566C78.6278 27.04 78.3714 26.4565 78.0258 25.917C77.6579 25.3555 77.212 24.8381 76.6657 24.4197C76.1752 24.0234 75.6066 23.7041 74.9823 23.4619C71.7605 22.2508 68.1485 23.8472 66.9222 27.029C66.4652 28.2181 66.3983 29.4732 66.677 30.6292C66.8331 31.3008 67.1118 31.9394 67.4908 32.5229Z" fill="#006ADD"/>
<path d="M30.0553 166.655C30.8914 166.512 31.683 166.193 32.3853 165.741C32.965 165.367 33.5001 164.894 33.9349 164.343C34.3028 163.87 34.6149 163.33 34.849 162.747C35.8078 160.27 35.0497 157.572 33.1768 155.899C32.6974 155.469 32.1289 155.106 31.5046 154.831C31.4043 154.787 31.2928 154.732 31.1924 154.699C30.5013 154.434 29.7989 154.313 29.1077 154.302C28.3943 154.28 27.6919 154.379 27.023 154.599C26.4545 154.776 25.9194 155.04 25.4289 155.359C24.8157 155.767 24.2695 156.284 23.8235 156.89C23.5114 157.319 23.2438 157.792 23.0432 158.321C21.8057 161.547 23.4333 165.147 26.6997 166.369C27.0788 166.512 27.4578 166.611 27.8369 166.677C28.5726 166.787 29.3307 166.776 30.0553 166.655Z" fill="#006ADD"/>
<path d="M57.6915 228.585C57.7138 228.431 57.7249 228.288 57.7249 228.134C57.7249 227.76 57.6804 227.396 57.58 227.044C57.2456 225.811 56.3426 224.743 55.0494 224.236C55.0383 224.225 55.016 224.214 55.0048 224.214C54.6592 224.082 54.3136 224.016 53.968 223.983C53.0985 223.884 52.2512 224.06 51.5043 224.457C51.1141 224.666 50.7462 224.919 50.4229 225.238C50.0439 225.635 49.7317 226.097 49.5311 226.637C48.695 228.794 49.7986 231.217 51.9837 232.042C54.1576 232.857 56.5878 231.789 57.4351 229.664C57.4462 229.653 57.4462 229.642 57.4574 229.62C57.5912 229.268 57.6581 228.927 57.6915 228.585Z" fill="#006ADD"/>
<path d="M174.78 243.316C174.056 243.041 173.32 242.997 172.607 243.107C172.239 243.162 171.871 243.25 171.536 243.404C170.756 243.746 170.098 244.329 169.641 245.089C169.518 245.298 169.407 245.507 169.318 245.738C169.273 245.86 169.251 245.992 169.217 246.113C168.638 248.172 169.708 250.363 171.77 251.144C173.955 251.97 176.408 250.88 177.244 248.722C177.567 247.896 177.59 247.038 177.4 246.245C177.311 245.882 177.166 245.551 176.977 245.221C176.497 244.384 175.75 243.691 174.78 243.316Z" fill="#006ADD"/>
<path d="M159.574 216.574C159.73 217.267 160.087 217.906 160.578 218.445C160.823 218.72 161.102 218.963 161.414 219.172C161.659 219.326 161.915 219.458 162.194 219.568C162.919 219.843 163.655 219.888 164.368 219.777C164.736 219.722 165.104 219.634 165.438 219.48C166.185 219.15 166.832 218.599 167.289 217.895C167.434 217.664 167.568 217.421 167.668 217.157C167.701 217.069 167.712 216.981 167.746 216.893C167.924 216.32 167.969 215.737 167.902 215.164C167.846 214.724 167.735 214.284 167.534 213.887C167.077 212.94 166.285 212.159 165.215 211.762C163.03 210.937 160.578 212.027 159.742 214.184C159.574 214.625 159.507 215.065 159.485 215.506C159.474 215.847 159.496 216.221 159.574 216.574Z" fill="#006ADD"/>
<path d="M229.975 189.853C230.276 190.062 230.588 190.26 230.945 190.392C230.956 190.392 230.956 190.403 230.956 190.403C233.141 191.229 235.593 190.139 236.43 187.981C237.266 185.823 236.162 183.401 233.977 182.575C231.792 181.75 229.339 182.84 228.503 184.997C228.113 185.999 228.158 187.056 228.525 187.981C228.693 188.4 228.916 188.785 229.206 189.126C229.428 189.401 229.685 189.644 229.975 189.853Z" fill="#006ADD"/>
<path d="M207.3 230.809C206.742 230.6 206.174 230.512 205.616 230.545C205.148 230.567 204.702 230.666 204.278 230.831C203.442 231.151 202.706 231.712 202.205 232.494C202.06 232.725 201.926 232.967 201.826 233.231C201.792 233.32 201.781 233.408 201.748 233.496C201.514 234.233 201.491 235.004 201.67 235.709C201.759 236.072 201.904 236.402 202.093 236.733C202.562 237.569 203.308 238.263 204.278 238.637C206.463 239.463 208.916 238.373 209.752 236.215C210.443 234.409 209.786 232.45 208.281 231.36C207.98 231.151 207.667 230.952 207.311 230.82C207.3 230.809 207.3 230.809 207.3 230.809Z" fill="#006ADD"/>
<path d="M34.5592 48.4651C35.1501 48.6523 35.7632 48.6963 36.3429 48.6302C36.7108 48.5862 37.0787 48.4981 37.4243 48.355C38.0709 48.0908 38.6394 47.6834 39.0854 47.1329C39.3641 46.7916 39.6093 46.4173 39.7765 45.9879L39.7877 45.9769C39.8769 45.7457 39.9326 45.5145 39.9772 45.2833C40.0553 44.9199 40.0664 44.5456 40.0441 44.1823C40.0218 43.9511 39.9995 43.7199 39.9438 43.4997C39.8323 43.0703 39.6539 42.6629 39.4087 42.2886C38.9404 41.5399 38.2381 40.9124 37.324 40.5711C35.1389 39.7453 32.6863 40.8353 31.8502 42.9932C31.1479 44.7988 31.8168 46.7806 33.3441 47.8596C33.6339 48.0687 33.9572 48.2559 34.314 48.388C34.392 48.4321 34.4812 48.4431 34.5592 48.4651Z" fill="#006ADD"/>
<path d="M18.5727 84.0817C19.2639 84.1258 19.9551 84.0707 20.6128 83.9166C22.0063 83.5863 23.2661 82.8156 24.1913 81.7036C24.615 81.1972 24.9717 80.6137 25.2393 79.9751C25.2616 79.9311 25.2727 79.898 25.295 79.854C25.7075 78.786 25.819 77.674 25.674 76.6171C25.5737 75.8794 25.3396 75.1748 25.0052 74.5142C24.9048 74.3161 24.7933 74.1179 24.6707 73.9307C24.2694 73.3142 23.7789 72.7527 23.1769 72.3013C23.0988 72.2352 23.0096 72.1802 22.9316 72.1251C22.4745 71.8058 21.9729 71.5306 21.4266 71.3214C21.3151 71.2774 21.2036 71.2443 21.0922 71.2113C17.7254 70.1434 14.0688 71.8389 12.7868 75.1418C11.4825 78.5328 13.1881 82.3202 16.5995 83.6413C16.6218 83.6524 16.6441 83.6634 16.6664 83.6634C17.2907 83.9056 17.9372 84.0377 18.5727 84.0817Z" fill="#006ADD"/>
<path d="M118.259 111.562C118.984 110.847 120.043 110.483 121.414 110.483H159.362V100.09H121.414C119.608 100.09 117.992 100.321 116.565 100.773C115.138 101.224 113.878 101.83 112.786 102.589C111.693 103.349 110.757 104.219 109.976 105.21C109.196 106.2 108.56 107.224 108.07 108.303C107.579 109.382 107.223 110.472 107 111.584C106.766 112.685 106.654 113.72 106.654 114.678V142.808C106.654 144.592 106.888 146.199 107.345 147.619C107.802 149.04 108.415 150.295 109.185 151.374C109.954 152.453 110.835 153.366 111.838 154.126C112.83 154.886 113.878 155.502 114.971 155.987C116.063 156.471 117.167 156.823 118.293 157.044C119.408 157.275 120.455 157.385 121.425 157.385H159.374V146.992H121.425C120.076 146.992 119.029 146.628 118.293 145.891C117.546 145.153 117.178 144.129 117.178 142.797V114.744C117.167 113.346 117.524 112.278 118.259 111.562Z" fill="#006ADD"/>
<path d="M178.504 138.657H197.478V128.748H178.504C175.862 128.748 173.61 129.233 171.77 130.191C169.931 131.149 168.426 132.338 167.278 133.769C166.13 135.189 165.305 136.742 164.792 138.426C164.279 140.1 164.023 141.663 164.023 143.105C164.023 145.715 164.513 147.928 165.483 149.755C166.453 151.583 167.657 153.058 169.106 154.192C170.544 155.326 172.116 156.141 173.799 156.647C175.483 157.154 177.055 157.407 178.515 157.407H197.489C200.131 157.407 202.372 156.923 204.223 155.965C206.073 155.007 207.567 153.818 208.715 152.386C209.864 150.966 210.689 149.414 211.201 147.751C211.714 146.089 211.971 144.537 211.971 143.094V128.506C211.971 125.897 211.48 123.684 210.51 121.856C209.54 120.029 208.336 118.553 206.887 117.419C205.449 116.285 203.877 115.471 202.194 114.964C200.51 114.458 198.938 114.205 197.478 114.205H174.379V124.069H197.478C198.771 124.069 199.841 124.466 200.689 125.269C201.536 126.073 201.96 127.152 201.96 128.506V143.006C201.96 144.283 201.569 145.351 200.789 146.199C200.009 147.047 198.905 147.476 197.467 147.476H178.593C177.356 147.476 176.285 147.102 175.371 146.342C174.457 145.582 174.011 144.525 174.011 143.171C174.011 141.894 174.401 140.826 175.182 139.956C175.973 139.087 177.077 138.657 178.504 138.657Z" fill="#006ADD"/>
<path d="M229.785 145.869C228.971 145.109 228.57 144.096 228.57 142.808V95.9393H218.046V142.808C218.046 145.494 218.537 147.773 219.507 149.623C220.477 151.473 221.703 152.981 223.186 154.137C224.668 155.293 226.262 156.13 227.979 156.636C229.696 157.143 231.301 157.396 232.818 157.396H237.511V147.003H232.818C231.614 147.003 230.599 146.628 229.785 145.869Z" fill="#006ADD"/>
<path d="M255.76 145.869C254.947 145.109 254.545 144.096 254.545 142.808V95.9393H244.021V142.808C244.021 145.494 244.512 147.773 245.482 149.623C246.452 151.473 247.678 152.981 249.161 154.137C250.643 155.293 252.238 156.13 253.954 156.636C255.671 157.143 257.277 157.396 258.793 157.396H263.486V147.003H258.793C257.578 147.003 256.574 146.628 255.76 145.869Z" fill="#006ADD"/>
<path d="M305.214 114.205H286.841V100.101H276.206V114.205H262.527V124.587H276.206V157.396H286.841V124.587H305.214V114.205Z" fill="#002F99"/>
<path d="M343.173 117.419C341.735 116.285 340.163 115.471 338.48 114.964C336.796 114.458 335.224 114.205 333.764 114.205H310.665V124.069H333.764C335.057 124.069 336.127 124.466 336.975 125.269C337.822 126.073 338.245 127.152 338.245 128.506V143.006C338.245 144.283 337.855 145.351 337.075 146.199C336.294 147.047 335.191 147.476 333.753 147.476H314.857C313.619 147.476 312.538 147.102 311.646 146.342C310.743 145.582 310.286 144.525 310.286 143.171C310.286 141.894 310.676 140.826 311.456 139.956C312.237 139.087 313.34 138.657 314.779 138.657H333.753V128.748H314.779C312.136 128.748 309.885 129.233 308.045 130.191C306.206 131.149 304.701 132.338 303.552 133.769C302.404 135.189 301.579 136.742 301.066 138.426C300.554 140.1 300.297 141.663 300.297 143.105C300.297 145.715 300.788 147.928 301.758 149.755C302.727 151.583 303.931 153.058 305.381 154.192C306.819 155.326 308.391 156.141 310.074 156.647C311.757 157.154 313.329 157.407 314.79 157.407H333.764C336.406 157.407 338.647 156.923 340.497 155.965C342.348 155.007 343.842 153.818 344.99 152.386C346.138 150.966 346.963 149.414 347.476 147.751C347.989 146.089 348.245 144.537 348.245 143.094V128.506C348.245 125.897 347.755 123.684 346.785 121.856C345.815 120.029 344.611 118.553 343.173 117.419Z" fill="#002F99"/>
<path d="M363.396 114.876C361.969 115.328 360.709 115.933 359.616 116.671C358.524 117.419 357.599 118.278 356.829 119.269C356.06 120.26 355.436 121.284 354.945 122.363C354.455 123.442 354.098 124.532 353.875 125.622C353.641 126.712 353.53 127.758 353.53 128.737V142.797C353.53 145.483 354.02 147.762 355.012 149.612C355.993 151.462 357.22 152.97 358.691 154.126C360.163 155.282 361.757 156.119 363.485 156.625C365.213 157.132 366.807 157.385 368.256 157.385H396.784V146.992H368.334C366.93 146.992 365.871 146.628 365.135 145.913C364.399 145.197 364.042 144.151 364.042 142.797V128.815C364.042 127.372 364.399 126.315 365.112 125.622C365.826 124.928 366.874 124.587 368.245 124.587H396.773V114.194H368.245C366.439 114.205 364.823 114.425 363.396 114.876Z" fill="#002F99"/>
<path d="M426.628 114.205V100.101H415.981V114.205H402.314V124.587H415.981V157.396H426.628V124.587H445V114.205H426.628Z" fill="#002F99"/>
</g>
<defs>
<clipPath id="clip0">
<rect width="445" height="262" fill="white"/>
</clipPath>
</defs>
</svg>
