<svg width="129" height="30" viewBox="0 0 129 30" fill="none" xmlns="http://www.w3.org/2000/svg">
<path d="M21.5544 28.511C23.6745 27.492 25.4057 25.9957 26.8972 24.1985C27.6631 23.2751 28.1911 22.208 28.6861 21.1273C29.564 19.2108 29.9921 17.1926 29.9845 15.0815C29.9787 13.4149 29.9817 11.7482 29.9843 10.0818C29.9854 9.3847 30.0018 8.6875 29.9998 7.99029C29.9957 6.33416 29.9751 4.6786 29.9804 3.02275C29.9831 2.16811 30.0145 1.31376 29.9841 0.459122C29.9682 0.00200562 29.9688 0.00171911 29.4994 0.00171911C26.9685 0.00157586 24.4376 0.00171912 21.9067 0.00186237C19.5577 0.00200562 17.2091 0.00687618 14.8601 9.73188e-08C14.8464 9.73188e-08 14.833 9.73188e-08 14.819 9.73188e-08C13.607 -0.000143154 12.4153 0.157863 11.2456 0.46299C9.62627 0.885439 8.10453 1.5497 6.72511 2.49974C3.08559 5.00593 0.899075 8.44769 0.195864 12.8252C-0.0151999 14.1381 0.0283848 15.4676 0.0268129 16.7861C0.0220972 20.919 -0.0500671 25.0527 0.0641101 29.1854C0.0859738 29.9811 0.0708271 29.9814 0.862637 29.982C5.54104 29.987 10.2196 29.9879 14.8983 29.9999C15.9496 30.0029 16.9921 29.9289 18.0204 29.7154C19.2466 29.4606 20.4227 29.0546 21.5544 28.511ZM13.6771 25.8657C10.5714 25.8513 7.46548 25.8612 4.35983 25.8705C4.35897 25.8705 4.3584 25.8705 4.35754 25.8705C4.17349 25.8705 4.13391 25.8025 4.13491 25.6445C4.13819 25.1695 4.13576 24.6944 4.13576 24.2193C4.13605 21.0149 4.11333 17.8102 4.14477 14.6061C4.16563 12.4904 4.8384 10.5647 6.0289 8.81943C7.35702 6.87221 9.14527 5.5149 11.3414 4.70166C12.3465 4.32921 13.3948 4.09829 14.4707 4.09413C18.1614 4.07995 21.8519 4.08898 25.5428 4.0811C25.8141 4.08052 25.9145 4.15845 25.9106 4.44195C25.897 5.52364 25.9062 6.60534 25.905 7.68674C25.9047 8.07968 25.8992 8.0847 25.4903 8.0847C24.2307 8.08498 22.9709 8.08484 21.7115 8.08455C19.4922 8.08427 17.2727 8.08384 15.0536 8.08556C11.8711 8.08799 9.05281 10.3156 8.32517 13.42C8.19641 13.9685 8.12139 14.5315 8.12311 15.1017C8.12868 17.1944 8.12496 19.2868 8.12554 21.3795C8.12568 21.844 8.14125 21.8598 8.59882 21.8599C9.13527 21.8601 9.67171 21.8583 10.208 21.8568C11.5171 21.8528 12.8261 21.8487 14.1348 21.8698C14.8717 21.8816 15.6004 21.9082 16.3296 21.7631C17.9335 21.4441 19.2525 20.6493 20.3051 19.4049C20.8174 18.7992 21.2075 18.1192 21.4754 17.3694C21.5976 17.0272 21.582 16.9962 21.2039 16.996C19.2877 16.9948 17.3719 16.9961 15.4557 16.9961C14.3768 16.9961 13.2977 16.9862 12.2192 17.0007C11.9217 17.0047 11.8034 16.926 11.8165 16.6103C11.8391 16.0654 11.8236 15.5186 11.8226 14.973C11.8216 14.3709 11.9937 13.8221 12.3019 13.3071C12.4363 13.0825 12.6029 12.9961 12.8671 12.9974C14.9746 13.0067 17.0822 13.0027 19.1897 13.0027C21.2972 13.0028 23.405 13.0078 25.5125 12.9969C25.8126 12.9954 25.918 13.0767 25.9119 13.389C25.8879 14.6201 25.9676 15.8548 25.7207 17.0747C25.5253 18.0398 25.2245 18.9684 24.7848 19.8487C23.947 21.5256 22.7589 22.9029 21.2242 23.9755C19.7059 25.0367 18.0211 25.6508 16.1818 25.8539C15.3457 25.9463 14.5123 25.8694 13.6771 25.8657Z" fill="url(#paint0_linear)"/>
<path d="M39.3267 18.9568V6.36188H47.1813C47.793 6.36188 48.2631 5.87461 48.2631 5.24125V4.12063C48.2631 3.48769 47.793 3 47.1813 3H36.0818C35.4706 3 35 3.48769 35 4.12063V18.9568C35 19.5655 35.4941 20.0526 36.0818 20.0526H38.2452C38.833 20.0526 39.3267 19.5655 39.3267 18.9568Z" fill="url(#paint1_linear)"/>
<path d="M56.2084 18.3425L62.3154 7.71546V18.3425C62.3154 18.9289 62.8186 19.421 63.4171 19.421H65.4769C66.0759 19.421 66.5785 18.9289 66.5785 18.3425V4.07953C66.5785 3.4929 66.0996 3.00041 65.5009 3.00041H62.0521C61.4771 3.00041 60.7823 3.51639 60.4473 4.07953L53.7894 15.5274V4.05564C53.7894 3.46942 53.286 3 52.6872 3H50.6274C50.0049 3 49.5259 3.46942 49.5259 4.07912V18.3423C49.5259 18.9287 50.0049 19.4208 50.6274 19.4208H54.5078C55.1304 19.4212 55.8726 18.9291 56.2084 18.3425Z" fill="url(#paint2_linear)"/>
<path d="M79.6818 19.421H81.2646C81.8298 19.421 82.4177 18.952 82.6216 18.3888L86.5098 7.12853V18.319C86.5098 18.9289 86.962 19.421 87.5501 19.421H89.5391C90.1267 19.421 90.5786 18.9289 90.5786 18.319V4.10263C90.5786 3.49251 90.1267 3 89.5617 3H85.0625C84.4752 3 83.9096 3.49251 83.7288 4.07915L80.4732 13.8619L77.2176 4.07915C77.037 3.49251 76.4716 3 75.8839 3H71.3855C70.82 3 70.3682 3.49251 70.3682 4.10263V18.319C70.3682 18.9289 70.82 19.421 71.4079 19.421H73.3971C73.9854 19.421 74.437 18.9289 74.437 18.319V7.12853L78.3258 18.3888C78.5293 18.952 79.1167 19.421 79.6818 19.421Z" fill="url(#paint3_linear)"/>
<path d="M109.48 18.3423V17.2397C109.48 16.6535 109.017 16.1841 108.438 16.1841H98.6255V12.8058H107.096C107.674 12.8058 108.161 12.3133 108.161 11.7267V10.648C108.161 10.0614 107.674 9.56885 107.096 9.56885H98.6255V6.23736H108.461C109.04 6.23736 109.526 5.76814 109.526 5.15824V4.07912C109.526 3.46963 109.04 3 108.461 3H95.4322C94.8537 3 94.3677 3.46963 94.3677 4.05584V18.319C94.3677 18.9291 94.8308 19.421 95.4322 19.421H108.415C109.017 19.421 109.48 18.9289 109.48 18.3423Z" fill="url(#paint4_linear)"/>
<path d="M128.474 18.3658V4.05584C128.474 3.46963 127.994 3 127.424 3H121.394C118.152 3 115.022 3.84492 114.155 7.50434L112.076 16.1843H111.209C110.638 16.1843 110.158 16.6537 110.158 17.2399V18.3425C110.158 18.9291 110.638 19.421 111.209 19.421H127.424C127.994 19.421 128.474 18.952 128.474 18.3658ZM124.272 16.1841H116.37L118.242 8.48953C118.562 7.10576 119.522 6.23757 120.938 6.23757H124.272V16.1841H124.272Z" fill="url(#paint5_linear)"/>
<path d="M40.0526 26.7042V22.8745C40.052 22.7108 39.9391 22.5789 39.7985 22.5789H38.6735C38.5267 22.5789 38.3852 22.7115 38.3401 22.8697L37.5263 25.5034L36.7126 22.8697C36.667 22.7115 36.526 22.5789 36.3791 22.5789H35.2539C35.1127 22.5789 35 22.7115 35 22.8756V26.7033C35 26.8681 35.1129 27 35.2601 27H35.7571C35.9044 27 36.017 26.8681 36.017 26.7033V23.6907L36.9894 26.7226C37.0404 26.8736 37.1871 27 37.3284 27H37.7238C37.8653 27 38.0122 26.8736 38.063 26.7226L39.0352 23.6907V26.7033C39.0352 26.8681 39.1482 27 39.2951 27H39.7927C39.9391 27 40.052 26.8686 40.0526 26.7042Z" fill="url(#paint6_linear)"/>
<path d="M44.8408 22.5789H41.5825C41.4379 22.5789 41.3164 22.7055 41.3164 22.863V26.7033C41.3164 26.8681 41.4317 27 41.5825 27H44.8282C44.9785 27 45.0943 26.8681 45.0943 26.71V26.4128C45.0943 26.2549 44.9785 26.1288 44.8343 26.1288H42.3805V25.2196H44.4984C44.6431 25.2196 44.7645 25.0865 44.7645 24.9284V24.6379C44.7645 24.48 44.6431 24.3474 44.4984 24.3474H42.3805V23.4506H44.8398C44.9844 23.4506 45.1059 23.3243 45.1059 23.1597V22.8692C45.1059 22.7056 44.9851 22.5796 44.8408 22.5789Z" fill="url(#paint7_linear)"/>
<path d="M51.1315 22.5792H49.468V22.5789C48.5735 22.5789 47.7106 22.8064 47.4713 23.7922L46.8978 26.1288H46.6584C46.5009 26.1288 46.3687 26.2554 46.3687 26.4128V26.71C46.3687 26.8681 46.5009 27 46.6584 27H51.1315C51.289 27 51.4213 26.8736 51.4213 26.7166V22.8635C51.4213 22.7053 51.289 22.5792 51.1315 22.5792ZM50.2617 26.1288H48.082L48.599 24.0572C48.6872 23.6847 48.9514 23.4506 49.342 23.4506H50.2617V26.1288Z" fill="url(#paint8_linear)"/>
<path d="M56.8269 22.5789H55.9323C55.7837 22.5789 55.6038 22.718 55.5169 22.8696L53.79 25.9518V22.863C53.79 22.7051 53.6597 22.5789 53.5045 22.5789H52.9706C52.8093 22.5789 52.6851 22.7055 52.6851 22.8696V26.7102C52.6851 26.8679 52.8086 26.9993 52.9695 27H53.9781C54.1387 26.9993 54.3309 26.8679 54.4175 26.7102L56.0009 23.8488V26.7102C56.0009 26.8679 56.1308 26.9993 56.2856 27H56.8217C56.9764 26.9993 57.1061 26.8679 57.1061 26.7102V22.8696C57.1061 22.7115 56.9819 22.5789 56.8269 22.5789Z" fill="url(#paint9_linear)"/>
<path d="M63.4215 26.7111V26.4181C63.4209 26.2547 63.3048 26.1288 63.166 26.1288H62.8711V22.8694C62.8711 22.7058 62.7547 22.5796 62.6165 22.5789H62.104C61.9647 22.5789 61.848 22.7055 61.848 22.863V26.1288H60.0238V22.8697C60.0238 22.7055 59.907 22.5789 59.768 22.5789H59.2563C59.1172 22.5789 59.0005 22.7055 59.0005 22.863V26.71C59.0005 26.8681 59.1172 27 59.2563 27H63.166C63.3048 27 63.4209 26.8686 63.4215 26.7111Z" fill="url(#paint10_linear)"/>
<path d="M68.8262 22.5789H67.9321C67.7832 22.5789 67.6029 22.718 67.5158 22.8696L65.7897 25.9518V22.863C65.7897 22.7051 65.6596 22.5789 65.5039 22.5789H64.9701C64.8086 22.5789 64.6846 22.7055 64.6846 22.8696V26.7102C64.6846 26.8679 64.8081 26.9993 64.969 27H65.9773C66.1384 26.9993 66.3305 26.8679 66.417 26.7102L68.0005 23.8488V26.7102C68.0005 26.8679 68.1297 26.9993 68.2847 27H68.821C68.976 26.9993 69.1056 26.8679 69.1056 26.7102V22.8696C69.1056 22.7115 68.9812 22.5789 68.8262 22.5789Z" fill="url(#paint11_linear)"/>
<path d="M73.9044 22.5789H73.415C73.28 22.5789 73.1671 22.7055 73.1671 22.8697V24.2593H71.3583V22.8697C71.3583 22.7055 71.2454 22.5789 71.1108 22.5789H70.6208C70.4815 22.5789 70.3689 22.7046 70.3682 22.8681V26.7118C70.3689 26.8688 70.4809 26.9993 70.6198 27H71.1118C71.2459 26.9993 71.3583 26.8734 71.3583 26.7169V25.1309H73.1671V26.7169C73.1671 26.8739 73.2797 26.9995 73.414 27H73.9054C74.0448 26.9993 74.1576 26.8679 74.1576 26.7102V22.8694C74.1576 22.7053 74.0444 22.5789 73.9044 22.5789Z" fill="url(#paint12_linear)"/>
<path d="M79.5929 25.3202H79.3044C79.1654 25.3202 79.051 25.4012 78.9566 25.6572C78.8471 25.9505 78.6581 26.138 78.3596 26.138H77.8772C77.1612 26.138 76.9673 25.807 76.9673 24.7891C76.9673 23.7718 77.1612 23.4402 77.8772 23.4402H78.3102C78.6085 23.4402 78.7973 23.6275 78.9066 23.9208C79.0012 24.1768 79.1155 24.258 79.2549 24.258H79.5434C79.6081 24.258 79.7921 24.2021 79.7921 23.9208C79.7921 23.0343 79.0711 22.5789 78.3944 22.5789H77.8526C76.6655 22.5789 76.0541 23.2698 76.0522 24.7823V24.7962C76.0541 26.3089 76.6655 27 77.8526 27H78.4443C79.1204 27 79.8417 26.5444 79.8417 25.6574C79.8417 25.3767 79.6576 25.3202 79.5929 25.3202Z" fill="url(#paint13_linear)"/>
<path d="M85.4894 26.7106L84.9579 25.4868C84.8356 25.2151 84.6179 24.8307 84.4085 24.7675C84.7047 24.6668 84.8486 24.3701 84.9579 24.0864L85.4195 22.875C85.4847 22.7054 85.463 22.5796 85.3547 22.5789H84.862C84.7527 22.5789 84.6352 22.6737 84.5567 22.8752L84.2254 23.7269C84.0554 24.1687 83.8764 24.3515 83.6285 24.3515H83.1706V22.8752C83.1706 22.7114 83.0791 22.5789 82.9698 22.5789H82.5693C82.4606 22.5789 82.3696 22.7102 82.3687 22.8729V26.706C82.3696 26.8694 82.4606 27 82.5693 27H82.9698C83.0791 27 83.1706 26.8738 83.1706 26.717V25.222H83.6285C83.9031 25.222 84.064 25.4806 84.2254 25.8527L84.6002 26.7104C84.6698 26.8738 84.8181 27 84.9271 27H85.4152C85.5287 27.0002 85.5591 26.874 85.4894 26.7106Z" fill="url(#paint14_linear)"/>
<path d="M88.0527 22.8676V26.7125C88.0537 26.8693 88.1418 26.9993 88.2559 27H88.9762C89.0911 26.9993 89.2283 26.8679 89.2902 26.7102L90.421 23.8488V26.7102C90.421 26.8679 90.5136 26.9993 90.6245 27H91.0074C91.1183 26.9993 91.2106 26.8679 91.2106 26.7102V22.8696C91.2106 22.7115 91.1222 22.5789 91.0113 22.5789H90.3727C90.2662 22.5789 90.1375 22.718 90.0755 22.8696L88.8423 25.9518V22.8632C88.8423 22.7053 88.7492 22.5792 88.638 22.5792H88.2567C88.1423 22.5792 88.0537 22.7046 88.0527 22.8676Z" fill="url(#paint15_linear)"/>
<path d="M94.5205 21.8371C94.5205 22.3402 94.8896 22.6472 95.4367 22.6472C95.9844 22.6472 96.3529 22.3402 96.3529 21.8371C96.3529 21.7365 96.2975 21.697 96.2028 21.697H95.9791C95.8897 21.697 95.8225 21.753 95.7887 21.8371C95.7386 21.9601 95.6271 22.0328 95.4367 22.0328C95.2473 22.0328 95.1354 21.9601 95.0849 21.8371C95.0517 21.7532 94.9845 21.697 94.8947 21.697H94.6714C94.5763 21.697 94.5205 21.7363 94.5205 21.8371Z" fill="url(#paint16_linear)"/>
<path d="M97.1748 22.9545H96.37C96.2362 22.9545 96.0737 23.0775 95.9958 23.2116L94.4425 25.938V23.2057C94.4425 23.0661 94.3253 22.9545 94.1854 22.9545H93.7049C93.5601 22.9545 93.4478 23.0665 93.4478 23.2116V26.6089C93.4478 26.7483 93.5597 26.8646 93.7039 26.8652H94.6115C94.7563 26.8646 94.9291 26.7483 95.0067 26.6089L96.4315 24.0777V26.6089C96.4315 26.7483 96.5481 26.8646 96.6872 26.8652H97.1699C97.3092 26.8646 97.4258 26.7483 97.4258 26.6089V23.2116C97.4258 23.0718 97.3143 22.9545 97.1748 22.9545Z" fill="url(#paint17_linear)"/>
<path d="M106.744 26.1288H106.449V22.8694C106.449 22.7058 106.333 22.5796 106.194 22.5789H105.681C105.542 22.5789 105.426 22.7055 105.426 22.863V26.1288H103.602V22.8697C103.602 22.7055 103.485 22.5789 103.346 22.5789H102.834C102.695 22.5789 102.579 22.7051 102.579 22.8618V26.7111C102.579 26.8688 102.695 27 102.834 27H106.744C106.883 27 107 26.8681 107 26.71V26.419C107 26.2549 106.883 26.1288 106.744 26.1288Z" fill="url(#paint18_linear)"/>
<path d="M112.041 26.7104V26.4132C112.041 26.2553 111.925 26.1292 111.781 26.1292H109.328V25.2199H111.445C111.59 25.2199 111.712 25.0869 111.712 24.9287V24.6382C111.712 24.4803 111.59 24.3477 111.445 24.3477H109.328V23.4509H111.787C111.931 23.4509 112.053 23.3245 112.053 23.1599V22.8694C112.053 22.7058 111.932 22.5796 111.788 22.5789H108.529C108.384 22.5789 108.264 22.7051 108.263 22.8618V26.7044C108.264 26.8688 108.379 27 108.529 27H111.775C111.925 27.0005 112.041 26.8683 112.041 26.7104Z" fill="url(#paint19_linear)"/>
<path d="M116.895 22.5789H116.486C116.374 22.5789 116.28 22.7055 116.28 22.8696V24.2592H114.773V22.8696C114.773 22.7055 114.678 22.5789 114.566 22.5789H114.158C114.041 22.5789 113.947 22.7055 113.947 22.8696V26.7102C113.947 26.8679 114.041 26.9993 114.157 27H114.567C114.679 26.9993 114.773 26.8734 114.773 26.7169V25.131H116.28V26.7169C116.28 26.8739 116.374 26.9995 116.486 27H116.896C117.012 26.9993 117.105 26.8679 117.105 26.7102V22.8696C117.105 22.7053 117.011 22.5789 116.895 22.5789Z" fill="url(#paint20_linear)"/>
<path d="M118.999 22.8687V23.1613C119 23.3254 119.106 23.4511 119.244 23.4511H120.404V26.7169C120.404 26.8739 120.515 26.9995 120.648 27H121.139C121.272 26.9993 121.383 26.8734 121.383 26.7169V23.4511H122.544C122.682 23.4511 122.788 23.3247 122.788 23.1601V22.8697C122.788 22.7055 122.682 22.5789 122.544 22.5789H119.243C119.106 22.5794 119 22.7053 118.999 22.8687Z" fill="url(#paint21_linear)"/>
<path d="M124.927 27H125.418C125.556 26.9993 125.662 26.8679 125.662 26.7102V26.0151H126.906C127.892 26.0151 128.471 25.486 128.474 24.3034V24.2912C128.471 23.1079 127.892 22.5789 126.906 22.5789H124.923C124.79 22.5789 124.684 22.7055 124.684 22.8696V26.7102C124.684 26.8676 124.795 26.9993 124.927 27ZM125.662 23.4508H126.608C127.118 23.4508 127.495 23.5772 127.495 24.2976C127.495 25.0178 127.118 25.1437 126.608 25.1437H125.662V23.4508Z" fill="url(#paint22_linear)"/>
<defs>
<linearGradient id="paint0_linear" x1="4.40396" y1="15" x2="25.5754" y2="15" gradientUnits="userSpaceOnUse">
<stop stop-color="#42837E"/>
<stop offset="0.5169" stop-color="#007169"/>
<stop offset="1" stop-color="#00473D"/>
</linearGradient>
<linearGradient id="paint1_linear" x1="38.0879" y1="11.5262" x2="48.0159" y2="11.5262" gradientUnits="userSpaceOnUse">
<stop stop-color="#42837E"/>
<stop offset="0.5169" stop-color="#007169"/>
<stop offset="1" stop-color="#00473D"/>
</linearGradient>
<linearGradient id="paint2_linear" x1="49.8071" y1="11.2106" x2="66.2716" y2="11.2106" gradientUnits="userSpaceOnUse">
<stop stop-color="#42837E"/>
<stop offset="0.5169" stop-color="#007169"/>
<stop offset="1" stop-color="#00473D"/>
</linearGradient>
<linearGradient id="paint3_linear" x1="70.6835" y1="11.2102" x2="90.2637" y2="11.2102" gradientUnits="userSpaceOnUse">
<stop stop-color="#42837E"/>
<stop offset="0.5169" stop-color="#007169"/>
<stop offset="1" stop-color="#00473D"/>
</linearGradient>
<linearGradient id="paint4_linear" x1="94.6526" y1="11.2104" x2="109.255" y2="11.2104" gradientUnits="userSpaceOnUse">
<stop stop-color="#42837E"/>
<stop offset="0.5169" stop-color="#007169"/>
<stop offset="1" stop-color="#00473D"/>
</linearGradient>
<linearGradient id="paint5_linear" x1="110.453" y1="11.2104" x2="125.204" y2="11.2104" gradientUnits="userSpaceOnUse">
<stop stop-color="#42837E"/>
<stop offset="0.5169" stop-color="#007169"/>
<stop offset="1" stop-color="#00473D"/>
</linearGradient>
<linearGradient id="paint6_linear" x1="35" y1="24.7894" x2="40.0526" y2="24.7894" gradientUnits="userSpaceOnUse">
<stop stop-color="#42837E"/>
<stop offset="0.5169" stop-color="#007169"/>
<stop offset="1" stop-color="#00473D"/>
</linearGradient>
<linearGradient id="paint7_linear" x1="41.3164" y1="24.7894" x2="45.1059" y2="24.7894" gradientUnits="userSpaceOnUse">
<stop stop-color="#42837E"/>
<stop offset="0.5169" stop-color="#007169"/>
<stop offset="1" stop-color="#00473D"/>
</linearGradient>
<linearGradient id="paint8_linear" x1="46.3686" y1="24.7894" x2="51.4213" y2="24.7894" gradientUnits="userSpaceOnUse">
<stop stop-color="#42837E"/>
<stop offset="0.5169" stop-color="#007169"/>
<stop offset="1" stop-color="#00473D"/>
</linearGradient>
<linearGradient id="paint9_linear" x1="52.6851" y1="24.7893" x2="57.1061" y2="24.7893" gradientUnits="userSpaceOnUse">
<stop stop-color="#42837E"/>
<stop offset="0.5169" stop-color="#007169"/>
<stop offset="1" stop-color="#00473D"/>
</linearGradient>
<linearGradient id="paint10_linear" x1="59.0005" y1="24.7894" x2="63.4215" y2="24.7894" gradientUnits="userSpaceOnUse">
<stop stop-color="#42837E"/>
<stop offset="0.5169" stop-color="#007169"/>
<stop offset="1" stop-color="#00473D"/>
</linearGradient>
<linearGradient id="paint11_linear" x1="64.6845" y1="24.7893" x2="69.1056" y2="24.7893" gradientUnits="userSpaceOnUse">
<stop stop-color="#42837E"/>
<stop offset="0.5169" stop-color="#007169"/>
<stop offset="1" stop-color="#00473D"/>
</linearGradient>
<linearGradient id="paint12_linear" x1="70.3682" y1="24.7894" x2="74.1576" y2="24.7894" gradientUnits="userSpaceOnUse">
<stop stop-color="#42837E"/>
<stop offset="0.5169" stop-color="#007169"/>
<stop offset="1" stop-color="#00473D"/>
</linearGradient>
<linearGradient id="paint13_linear" x1="76.0522" y1="24.7896" x2="79.8417" y2="24.7896" gradientUnits="userSpaceOnUse">
<stop stop-color="#42837E"/>
<stop offset="0.5169" stop-color="#007169"/>
<stop offset="1" stop-color="#00473D"/>
</linearGradient>
<linearGradient id="paint14_linear" x1="82.3689" y1="24.7895" x2="85.4945" y2="24.7895" gradientUnits="userSpaceOnUse">
<stop stop-color="#42837E"/>
<stop offset="0.5169" stop-color="#007169"/>
<stop offset="1" stop-color="#00473D"/>
</linearGradient>
<linearGradient id="paint15_linear" x1="88.0528" y1="24.7895" x2="91.2107" y2="24.7895" gradientUnits="userSpaceOnUse">
<stop stop-color="#42837E"/>
<stop offset="0.5169" stop-color="#007169"/>
<stop offset="1" stop-color="#00473D"/>
</linearGradient>
<linearGradient id="paint16_linear" x1="94.5206" y1="22.172" x2="96.353" y2="22.172" gradientUnits="userSpaceOnUse">
<stop stop-color="#42837E"/>
<stop offset="0.5169" stop-color="#007169"/>
<stop offset="1" stop-color="#00473D"/>
</linearGradient>
<linearGradient id="paint17_linear" x1="93.4477" y1="24.9097" x2="97.4258" y2="24.9097" gradientUnits="userSpaceOnUse">
<stop stop-color="#42837E"/>
<stop offset="0.5169" stop-color="#007169"/>
<stop offset="1" stop-color="#00473D"/>
</linearGradient>
<linearGradient id="paint18_linear" x1="102.579" y1="24.7894" x2="107" y2="24.7894" gradientUnits="userSpaceOnUse">
<stop stop-color="#42837E"/>
<stop offset="0.5169" stop-color="#007169"/>
<stop offset="1" stop-color="#00473D"/>
</linearGradient>
<linearGradient id="paint19_linear" x1="108.263" y1="24.7897" x2="112.053" y2="24.7897" gradientUnits="userSpaceOnUse">
<stop stop-color="#42837E"/>
<stop offset="0.5169" stop-color="#007169"/>
<stop offset="1" stop-color="#00473D"/>
</linearGradient>
<linearGradient id="paint20_linear" x1="113.947" y1="24.7893" x2="117.105" y2="24.7893" gradientUnits="userSpaceOnUse">
<stop stop-color="#42837E"/>
<stop offset="0.5169" stop-color="#007169"/>
<stop offset="1" stop-color="#00473D"/>
</linearGradient>
<linearGradient id="paint21_linear" x1="118.999" y1="24.7898" x2="122.789" y2="24.7898" gradientUnits="userSpaceOnUse">
<stop stop-color="#42837E"/>
<stop offset="0.5169" stop-color="#007169"/>
<stop offset="1" stop-color="#00473D"/>
</linearGradient>
<linearGradient id="paint22_linear" x1="124.684" y1="24.7895" x2="128.473" y2="24.7895" gradientUnits="userSpaceOnUse">
<stop stop-color="#42837E"/>
<stop offset="0.5169" stop-color="#007169"/>
<stop offset="1" stop-color="#00473D"/>
</linearGradient>
</defs>
</svg>
