<?xml version="1.0" encoding="utf-8"?>
<!-- Generator: Adobe Illustrator 25.2.1, SVG Export Plug-In . SVG Version: 6.00 Build 0)  -->
<svg version="1.1" id="Layer_1" xmlns="http://www.w3.org/2000/svg" xmlns:xlink="http://www.w3.org/1999/xlink" x="0px" y="0px"
	 viewBox="0 0 153.4 57.7" style="enable-background:new 0 0 153.4 57.7;" xml:space="preserve">
<style type="text/css">
	.st0{fill:#F07F00;}
</style>
<g>
	<path d="M9,38.7H0V9h22.5v7.8H9v2.9h13.2v7.8H9V38.7z"/>
	<path class="st0" d="M32.9,15.7c-0.8,0.8-1.7,1.1-2.8,1.1s-2-0.4-2.8-1.1c-0.8-0.8-1.1-1.7-1.1-2.8s0.4-2,1.1-2.8
		C28.1,9.4,29,9,30.1,9s2,0.4,2.8,1.1c0.8,0.8,1.1,1.7,1.1,2.8S33.7,14.9,32.9,15.7z"/>
	<rect x="26.1" y="19.8" width="8" height="18.9"/>
	<path d="M78.7,15.7c-0.8,0.8-1.7,1.1-2.8,1.1c-1.1,0-2-0.4-2.8-1.1C72.4,14.9,72,14,72,12.9s0.4-2,1.1-2.8C73.9,9.4,74.8,9,75.9,9
		c1.1,0,2,0.4,2.8,1.1c0.8,0.8,1.1,1.7,1.1,2.8S79.5,14.9,78.7,15.7z"/>
	<rect x="71.9" y="19.8" class="st0" width="8" height="18.9"/>
	<path d="M46.6,38.7h-8V9h8V38.7z"/>
	<path d="M55,46.7h-4V1h4V46.7z"/>
	<path class="st0" d="M67.5,38.7h-8V9h8V38.7z"/>
	<path class="st0" d="M106.9,38.7h-8V26.8c0-2-1-3.1-3.1-3.1c-1.3,0-2.4,0.6-3.4,1.7v13.2h-8V17.2h8v2.4c1.8-2,4.2-3,7.4-3
		c2.4,0,4.2,0.6,5.4,1.9c1.2,1.3,1.8,2.9,1.8,4.9L106.9,38.7L106.9,38.7z"/>
	<path class="st0" d="M120.8,39.2c-3.4,0-6.3-1-8.6-3.1c-2.3-2-3.4-4.8-3.4-8.2c0-3.2,1.1-5.8,3.3-8s5-3.2,8.4-3.2
		c3.2,0,5.9,1.1,8,3.3s3.2,5.1,3.2,8.8v1.6h-14.6c0.2,0.7,0.8,1.4,1.6,1.9c0.8,0.5,1.8,0.8,3.1,0.8c0.7,0,1.6-0.2,2.6-0.4
		c1.1-0.3,1.8-0.6,2.3-1.1l3.3,4.9c-1,0.9-2.4,1.5-4,2C124.3,39,122.6,39.2,120.8,39.2z M124.1,25.3c-0.4-1.7-1.6-2.6-3.6-2.6
		c-1.9,0-3,0.9-3.5,2.6H124.1z"/>
	<path class="st0" d="M143.2,39.2c-2,0-3.9-0.3-5.9-0.9s-3.5-1.4-4.7-2.4l3.2-5.4c0.9,0.7,2.1,1.3,3.6,1.9c1.6,0.6,2.9,0.8,4.1,0.8
		c1.4,0,2.1-0.3,2.1-0.9c0-0.3-0.3-0.5-0.9-0.7s-1.4-0.3-2.2-0.4c-0.9-0.1-1.9-0.2-2.9-0.5c-1.1-0.3-2-0.6-2.9-1s-1.6-1.1-2.2-2.1
		c-0.6-1-0.9-2.2-0.9-3.6c0-2,0.9-3.8,2.6-5.2s4.1-2.1,7.1-2.1c3.4,0,6.5,0.9,9.3,2.8l-2.9,5.2c-0.7-0.6-1.7-1.1-2.8-1.6
		c-1.1-0.4-2.3-0.7-3.5-0.7c-0.6,0-1,0.1-1.4,0.3c-0.4,0.2-0.6,0.4-0.6,0.6c0,0.3,0.4,0.5,1.2,0.7s1.8,0.3,3,0.5
		c1.2,0.2,2.4,0.5,3.6,0.9c1.2,0.4,2.2,1.2,3,2.2c0.8,1.1,1.2,2.5,1.2,4.1c0,2.2-0.9,3.9-2.8,5.3C148.8,38.5,146.3,39.2,143.2,39.2z
		"/>
	<g>
		<path d="M66.2,53.8h-0.6l-4.4-4.8L60,50.2v3.5h-0.5v-9.8H60v5.7l5.1-5.7h0.6l-4.3,4.7L66.2,53.8z"/>
		<path d="M70.2,53.9c-1,0-1.8-0.4-2.4-1.1s-0.9-1.6-0.9-2.7c0-1.1,0.3-2,0.9-2.7s1.4-1.1,2.4-1.1s1.8,0.3,2.4,1.1
			c0.6,0.7,0.9,1.6,0.9,2.7c0,1.1-0.3,2-0.9,2.7C72,53.6,71.2,53.9,70.2,53.9z M70.2,53.5c0.9,0,1.6-0.3,2.1-1
			c0.5-0.7,0.8-1.4,0.8-2.4c0-0.9-0.2-1.7-0.8-2.3c-0.5-0.7-1.2-1-2.1-1s-1.6,0.3-2.1,1c-0.5,0.7-0.8,1.4-0.8,2.3
			c0,0.9,0.3,1.7,0.8,2.4C68.7,53.2,69.4,53.5,70.2,53.5z"/>
		<path d="M77.7,53.9c-1.1,0-1.9-0.4-2.6-1.1l0.3-0.3c0.5,0.7,1.3,1.1,2.3,1.1c0.6,0,1.2-0.2,1.5-0.5s0.6-0.7,0.6-1.2
			c0-0.4-0.2-0.7-0.5-1c-0.3-0.2-0.7-0.4-1.1-0.5c-0.4-0.1-0.9-0.2-1.3-0.3s-0.8-0.3-1.1-0.6c-0.3-0.3-0.5-0.6-0.5-1.1
			c0-0.5,0.2-1,0.7-1.3c0.4-0.4,1-0.5,1.8-0.5c1.1,0,1.9,0.4,2.4,1.1l-0.3,0.3c-0.4-0.7-1.2-1-2.1-1c-0.6,0-1.1,0.1-1.4,0.4
			c-0.3,0.3-0.5,0.6-0.5,1.1c0,0.4,0.2,0.7,0.5,0.9s0.7,0.4,1.1,0.5c0.4,0.1,0.9,0.2,1.3,0.3c0.4,0.1,0.8,0.3,1.1,0.6
			s0.5,0.7,0.5,1.2c0,0.6-0.2,1.1-0.7,1.5S78.5,53.9,77.7,53.9z"/>
		<path d="M87.4,53.8H87v-0.9c-0.6,0.7-1.5,1-2.5,1c-0.7,0-1.2-0.2-1.8-0.6s-0.8-1-0.8-1.7s0.2-1.3,0.7-1.7c0.5-0.4,1.1-0.6,1.8-0.6
			c1,0,1.8,0.3,2.5,1v-1.6c0-0.5-0.2-1-0.6-1.3C86,47,85.5,46.9,85,46.9c-0.9,0-1.7,0.4-2.3,1.1l-0.3-0.3c0.4-0.4,0.8-0.7,1.2-0.9
			s0.9-0.3,1.5-0.3c0.7,0,1.3,0.2,1.8,0.5s0.7,0.9,0.7,1.6L87.4,53.8L87.4,53.8z M84.7,53.5c1,0,1.8-0.4,2.3-1.1v-1.8
			c-0.6-0.7-1.3-1.1-2.3-1.1c-0.6,0-1.2,0.2-1.5,0.6s-0.6,0.8-0.6,1.4s0.2,1,0.6,1.4C83.5,53.3,84,53.5,84.7,53.5z"/>
		<path d="M90.4,53.8H90v-7.1h0.4v1.3c0.7-1,1.5-1.4,2.4-1.4V47c-0.1,0-0.2,0-0.3,0c-0.4,0-0.8,0.2-1.2,0.4s-0.7,0.6-0.9,1
			L90.4,53.8L90.4,53.8z"/>
		<path d="M97.6,53.9c-1,0-1.9-0.3-2.5-1c-0.7-0.7-1-1.6-1-2.7c0-1,0.3-1.9,1-2.7c0.6-0.7,1.4-1.1,2.4-1.1c1,0,1.8,0.4,2.4,1.1
			s0.9,1.6,0.9,2.7v0.2h-6.2c0,0.9,0.3,1.7,0.8,2.3c0.6,0.6,1.3,0.9,2.2,0.9c1,0,1.8-0.4,2.5-1.1l0.3,0.3
			C99.5,53.5,98.6,53.9,97.6,53.9z M100.2,49.9c0-0.5-0.1-1-0.3-1.4c-0.2-0.5-0.5-0.8-1-1.2c-0.4-0.3-1-0.5-1.6-0.5
			c-0.9,0-1.5,0.3-2,1s-0.8,1.3-0.8,2.1H100.2z"/>
		<path d="M103.5,53.8h-0.4V47h-1.2v-0.4h1.2v-0.8c0-0.7,0.2-1.2,0.5-1.5s0.8-0.6,1.3-0.6c0.4,0,0.8,0.2,1.2,0.4l-0.3,0.3
			c-0.3-0.3-0.6-0.4-0.9-0.4c-0.9,0-1.3,0.6-1.3,1.7v0.8h1.4V47h-1.4V53.8z M107.2,53.8h-0.4V47h-1.2v-0.4h1.2v-0.8
			c0-0.7,0.2-1.2,0.5-1.5s0.8-0.6,1.3-0.6c0.4,0,0.8,0.2,1.2,0.4l-0.3,0.3c-0.3-0.3-0.6-0.4-0.9-0.4c-0.9,0-1.3,0.6-1.3,1.7v0.8h1.4
			V47h-1.4V53.8z"/>
		<path d="M110.2,53.8c-0.1,0.1-0.2,0.1-0.3,0.1s-0.2,0-0.3-0.1c-0.1-0.1-0.1-0.2-0.1-0.3c0-0.1,0.1-0.2,0.2-0.3s0.2-0.1,0.3-0.1
			s0.2,0,0.3,0.1s0.2,0.2,0.2,0.3C110.3,53.5,110.2,53.7,110.2,53.8z"/>
		<path d="M118.3,53.8h-0.4v-1.2c-0.2,0.4-0.6,0.7-1.1,1s-1,0.4-1.5,0.4c-1,0-1.7-0.3-2.3-1s-0.9-1.6-0.9-2.7c0-1.1,0.3-2,0.9-2.7
			c0.6-0.7,1.3-1,2.3-1c0.5,0,1,0.1,1.4,0.4s0.8,0.6,1.1,1v-3.9h0.4C118.3,43.9,118.3,53.8,118.3,53.8z M115.3,53.5
			c0.5,0,1-0.1,1.5-0.4c0.5-0.3,0.8-0.6,1.1-1v-3.8c-0.2-0.4-0.6-0.7-1.1-1c-0.5-0.3-1-0.4-1.5-0.4c-0.8,0-1.5,0.3-2,0.9
			c-0.5,0.6-0.7,1.4-0.7,2.4s0.2,1.8,0.7,2.4C113.8,53.2,114.4,53.5,115.3,53.5z"/>
		<path d="M123.9,53.9c-1,0-1.9-0.3-2.5-1c-0.7-0.7-1-1.6-1-2.7c0-1,0.3-1.9,1-2.7c0.6-0.7,1.4-1.1,2.4-1.1c1,0,1.8,0.4,2.4,1.1
			s0.9,1.6,0.9,2.7v0.2h-6.2c0,0.9,0.3,1.7,0.8,2.3c0.6,0.6,1.3,0.9,2.2,0.9c1,0,1.8-0.4,2.5-1.1l0.3,0.3
			C125.9,53.5,125,53.9,123.9,53.9z M126.6,49.9c0-0.5-0.1-1-0.3-1.4c-0.2-0.5-0.5-0.8-1-1.2c-0.4-0.3-1-0.5-1.6-0.5
			c-0.9,0-1.5,0.3-2,1s-0.8,1.3-0.8,2.1H126.6z"/>
		<path d="M131.2,53.9c-1.1,0-1.9-0.4-2.6-1.1l0.4-0.3c0.5,0.7,1.3,1.1,2.3,1.1c0.6,0,1.1-0.2,1.5-0.5s0.6-0.7,0.6-1.2
			c0-0.4-0.2-0.7-0.5-1c-0.3-0.2-0.7-0.4-1.1-0.5c-0.4-0.1-0.9-0.2-1.3-0.3s-0.8-0.3-1.1-0.6c-0.3-0.3-0.5-0.6-0.5-1.1
			c0-0.5,0.2-1,0.6-1.3c0.4-0.4,1-0.5,1.8-0.5c1.1,0,1.9,0.4,2.4,1.1l-0.3,0.3c-0.4-0.7-1.2-1-2.1-1c-0.6,0-1.1,0.1-1.4,0.4
			c-0.4,0.3-0.5,0.6-0.5,1.1c0,0.4,0.2,0.7,0.5,0.9s0.7,0.4,1.1,0.5c0.4,0.1,0.9,0.2,1.3,0.3c0.4,0.1,0.8,0.3,1.1,0.6
			s0.5,0.7,0.5,1.2c0,0.6-0.2,1.1-0.7,1.5S132,53.9,131.2,53.9z"/>
		<path d="M136.1,45.4c-0.1,0-0.2,0-0.3-0.1s-0.1-0.2-0.1-0.3s0-0.2,0.1-0.3s0.2-0.1,0.3-0.1c0.1,0,0.2,0,0.3,0.1
			c0.1,0.1,0.1,0.2,0.1,0.3s0,0.2-0.1,0.3C136.4,45.4,136.3,45.4,136.1,45.4z M136.4,53.8h-0.4v-7.1h0.4V53.8z"/>
		<path d="M141.7,56.7c-0.6,0-1.1-0.1-1.5-0.2s-0.8-0.4-1.2-0.9l0.3-0.4c0.3,0.4,0.6,0.7,1,0.8s0.8,0.2,1.4,0.2
			c0.8,0,1.4-0.2,1.9-0.6s0.7-1,0.7-1.8v-1.2c-0.3,0.4-0.6,0.7-1.1,1c-0.5,0.3-0.9,0.4-1.5,0.4c-1,0-1.7-0.3-2.3-1s-0.9-1.6-0.9-2.7
			c0-1.1,0.3-2,0.9-2.7c0.6-0.7,1.4-1,2.3-1c0.5,0,1,0.1,1.4,0.4s0.8,0.6,1.1,1v-1.2h0.4v7.2c0,1-0.3,1.7-0.8,2.2
			C143.3,56.4,142.6,56.7,141.7,56.7z M141.7,53.6c0.5,0,1-0.1,1.5-0.4s0.8-0.6,1.1-1v-3.8c-0.2-0.4-0.6-0.7-1.1-1
			c-0.5-0.3-1-0.4-1.5-0.4c-0.9,0-1.5,0.3-2,1c-0.5,0.6-0.7,1.4-0.7,2.4s0.2,1.8,0.7,2.4C140.2,53.2,140.9,53.6,141.7,53.6z"/>
		<path d="M152.5,53.8h-0.4v-5c0-0.7-0.2-1.2-0.5-1.5s-0.8-0.4-1.4-0.4c-0.5,0-0.9,0.1-1.4,0.4c-0.5,0.3-0.8,0.6-1.1,1v5.6h-0.4
			v-7.1h0.4v1.1c0.3-0.3,0.7-0.7,1.1-0.9s1-0.4,1.4-0.4c0.7,0,1.3,0.2,1.7,0.5c0.4,0.4,0.6,1,0.6,1.8L152.5,53.8L152.5,53.8z"/>
	</g>
</g>
</svg>
