<svg width="192" height="108" viewBox="0 0 192 108" fill="none" xmlns="http://www.w3.org/2000/svg">
<path d="M94.7243 8.06091H108.342C111.68 8.06091 114.03 8.89611 115.586 10.451C116.647 11.5136 117.293 12.9166 117.293 14.8143C117.293 17.8853 115.548 19.7065 113.195 20.7302C116.422 21.7927 118.469 23.615 118.469 27.2939C118.469 31.8456 114.752 34.6139 108.421 34.6139H94.7243V8.06091ZM106.521 18.6439C108.759 18.6439 110.012 17.8853 110.012 16.2538C110.012 14.8143 108.872 13.9791 106.674 13.9791H101.892V18.6439H106.521ZM107.582 28.6969C109.819 28.6969 111.11 27.8252 111.11 26.1925C111.11 24.7506 109.971 23.8035 107.508 23.8035H101.891V28.6969H107.582Z" fill="#3D3D3B"/>
<path d="M135.211 7.87244H142.303L153.607 34.6151H145.718L143.784 29.8713H133.543L131.646 34.6151H123.91L135.211 7.87244ZM141.66 24.1451L138.701 16.5966L135.705 24.1451H141.66Z" fill="#3D3D3B"/>
<path d="M158.917 8.06213H166.279V28.1656H171.099V8.06213H178.458V28.1656H184.646V8.06213H192V34.6151H158.917V8.06213Z" fill="#3D3D3B"/>
<path d="M92.0984 64.1756H95.2036C97.0766 59.1067 98.0343 54.2381 98.0343 43.7399V43.0237H117.942V64.1756H121.095V70.9585H113.672V70.9596H98.8271L98.31 70.9585H92.0996V64.1756H92.0984ZM110.202 64.1756V49.8077H105.5V50.0881C105.5 56.2725 104.579 60.3436 103.302 64.1756H110.202Z" fill="#3D3D3B"/>
<path d="M123.713 56.9898C123.713 48.9689 130.177 42.4629 138.797 42.4629C147.416 42.4629 153.803 48.89 153.803 56.9898C153.803 65.0131 147.338 71.5179 138.717 71.5179C130.096 71.5179 123.713 65.0932 123.713 56.9898ZM145.9 56.9898C145.9 52.9611 142.984 49.4483 138.717 49.4483C134.483 49.4483 131.654 52.881 131.654 56.9898C131.654 61.0209 134.565 64.5336 138.796 64.5336C143.067 64.5336 145.9 61.101 145.9 56.9898Z" fill="#3D3D3B"/>
<path d="M160.615 43.0225H168.796L175.457 53.8387L182.126 43.0225H190.307V70.9584H182.603V54.9142L175.457 65.8495H175.304L168.196 54.9955V70.9584H160.615V43.0225Z" fill="#3D3D3B"/>
<path d="M92.0984 87.9355C92.0984 85.6608 93.7995 83.776 96.166 83.776C97.6267 83.776 98.4772 84.3155 99.2818 85.0753L98.6822 85.7185C98.006 85.0753 97.2486 84.6159 96.1554 84.6159C94.3755 84.6159 93.042 86.0637 93.042 87.9355C93.042 89.7967 94.3861 91.2562 96.1554 91.2562C97.2592 91.2562 97.9848 90.8333 98.7505 90.0971L99.3501 90.7285C98.5102 91.579 97.5926 92.0961 96.1342 92.0961C93.8112 92.0973 92.0984 90.2679 92.0984 87.9355Z" fill="#3D3D3B"/>
<path d="M103.066 84.742H100.366V83.915H106.684V84.742H103.984V91.9583H103.066V84.742Z" fill="#3D3D3B"/>
<path d="M108.391 83.915H111.401C113.221 83.915 114.414 84.8786 114.414 86.4878C114.414 88.2241 112.963 89.1194 111.253 89.1194H109.298V91.9583H108.391V83.915ZM111.287 88.2913C112.618 88.2913 113.492 87.5798 113.492 86.4995C113.492 85.351 112.632 84.7538 111.331 84.7538H109.297V88.2924H111.287V88.2913Z" fill="#3D3D3B"/>
<path d="M115.714 87.9355C115.714 85.7173 117.379 83.776 119.828 83.776C122.275 83.776 123.92 85.6961 123.92 87.9355C123.92 90.1536 122.252 92.0961 119.807 92.0961C117.358 92.0973 115.714 90.1772 115.714 87.9355ZM122.977 87.9355C122.977 86.1096 121.646 84.6159 119.807 84.6159C117.968 84.6159 116.657 86.0849 116.657 87.9355C116.657 89.7625 117.991 91.2562 119.828 91.2562C121.666 91.2562 122.977 89.7861 122.977 87.9355Z" fill="#3D3D3B"/>
<path d="M125.843 83.915H126.753V90.5907L131.555 83.915H132.416V91.9583H131.52V85.2815L126.728 91.9583H125.843V83.915Z" fill="#3D3D3B"/>
<path d="M136.824 84.742H134.123V83.915H140.442V84.742H137.742V91.9583H136.824V84.742Z" fill="#3D3D3B"/>
<path d="M142.149 83.915H147.961V84.742H143.053V87.489H147.445V88.316H143.053V91.1302H148.021V91.9583H142.149V83.915Z" fill="#3D3D3B"/>
<path d="M148.657 91.8547L148.84 91.1208C148.966 91.1774 149.3 91.2339 149.552 91.2339C150.172 91.2339 151.219 90.8558 151.219 85.3746V83.9163H156.426V91.9596H155.514V84.7432H152.091V85.6161C152.091 91.2575 150.939 92.0514 149.701 92.0514C149.346 92.0514 148.865 91.936 148.657 91.8547Z" fill="#3D3D3B"/>
<path d="M158.705 83.915H159.611V87.0285H161.647C163.371 87.0285 164.773 87.7188 164.773 89.3962C164.773 90.97 163.61 91.9595 161.785 91.9595H158.706V83.915H158.705ZM161.759 91.1302C163.049 91.1302 163.864 90.5553 163.864 89.4186C163.864 88.3714 163.036 87.8448 161.699 87.8448H159.61V91.1302H161.759Z" fill="#3D3D3B"/>
<path d="M166.431 83.915H167.34V87.489H171.983V83.915H172.89V91.9583H171.983V88.3372H167.34V91.9583H166.431V83.915Z" fill="#3D3D3B"/>
<path d="M178.147 83.8572H178.995L182.659 91.9594H181.684L180.74 89.8331H176.361L175.408 91.9594H174.479L178.147 83.8572ZM180.386 89.0156L178.558 84.9138L176.72 89.0156H180.386Z" fill="#3D3D3B"/>
<path d="M186.11 88.7295C184.824 88.4986 183.919 87.6823 183.919 86.3394C183.919 85.7186 184.126 85.1213 184.528 84.7303C185.021 84.2367 185.838 83.9163 186.873 83.9163H190.307V91.9596H189.401V88.8791H187.089L184.699 91.9596H183.595L186.11 88.7295ZM189.401 88.1087V84.7303H186.929C185.607 84.7303 184.824 85.3864 184.824 86.4089C184.824 87.4549 185.699 88.1087 186.929 88.1087H189.401Z" fill="#3D3D3B"/>
<path d="M92.4567 98.8613H93.3637V103.665L97.985 98.8613H99.1547L95.7091 102.378L99.3055 106.905H98.1664L95.0753 103.009L93.3637 104.745V106.905H92.4567V98.8613Z" fill="#3D3D3B"/>
<path d="M100.022 102.883C100.022 100.665 101.687 98.7234 104.132 98.7234C106.583 98.7234 108.225 100.644 108.225 102.883C108.225 105.101 106.559 107.042 104.11 107.042C101.666 107.042 100.022 105.123 100.022 102.883ZM107.282 102.883C107.282 101.056 105.95 99.5621 104.11 99.5621C102.274 99.5621 100.964 101.033 100.964 102.883C100.964 104.71 102.295 106.204 104.132 106.204C105.973 106.204 107.282 104.733 107.282 102.883Z" fill="#3D3D3B"/>
<path d="M110.15 98.8613H111.07L114.001 103.252L116.928 98.8613H117.849V106.905H116.941V100.39L114.01 104.698H113.967L111.036 100.401V106.905H110.15V98.8613Z" fill="#3D3D3B"/>
<path d="M120.13 98.8613H126.474V106.905H125.567V99.6894H121.038V106.905H120.13V98.8613Z" fill="#3D3D3B"/>
<path d="M131.729 98.8036H132.579L136.246 106.905H135.271L134.327 104.778H129.952L128.994 106.905H128.062L131.729 98.8036ZM133.971 103.964L132.141 99.8614L130.304 103.964H133.971Z" fill="#3D3D3B"/>
<path d="M137.836 98.8613H138.743V102.434H143.387V98.8613H144.296V106.905H143.387V103.286H138.743V106.905H137.836V98.8613Z" fill="#3D3D3B"/>
<path d="M146.572 98.8613H147.484V105.538L152.285 98.8613H153.149V106.905H152.248V100.23L147.458 106.905H146.572V98.8613Z" fill="#3D3D3B"/>
<path d="M157.288 103.677C156.002 103.447 155.094 102.632 155.094 101.287C155.094 100.666 155.3 100.069 155.701 99.6788C156.199 99.184 157.013 98.8624 158.047 98.8624H161.484V106.906H160.576V103.828H158.265L155.878 106.906H154.773L157.288 103.677ZM160.575 103.055V99.6776H158.102C156.782 99.6776 156.002 100.33 156.002 101.355C156.002 102.4 156.874 103.055 158.102 103.055H160.575Z" fill="#3D3D3B"/>
<path d="M70.7664 30.213L41.0659 59.9065L25.2078 43.6303L15.341 53.4983L41.0611 78.0534L80.2115 39.3094L70.7664 30.213Z" fill="#27923D"/>
<path d="M56.0604 34.3713L65.9272 24.5021L40.2589 0L22.4571 17.6262V7.21163H12.9143V27.0725L0 39.8583L9.44509 48.9524L40.2553 18.1469L56.0604 34.3713Z" fill="#3D3D3B"/>
</svg>
